<?xml version="1.0" encoding="UTF-8"?>
<svg xmlns="http://www.w3.org/2000/svg" xmlns:xlink="http://www.w3.org/1999/xlink" width="605px" height="226px" viewBox="0 0 605 226" version="1.1">
<g id="surface1">
<path style=" stroke:none;fill-rule:nonzero;fill:rgb(0%,0%,0%);fill-opacity:1;" d="M 42.046875 0.453125 C 31.339844 2.664062 23.414062 10.316406 20.507812 21.238281 L 19.84375 23.75 L 19.664062 97.417969 L 19.511719 171.089844 L 18.421875 173.359375 C 17.636719 174.960938 15.125 178.441406 9.832031 185.15625 C 5.71875 190.390625 1.996094 195.292969 1.574219 196.046875 C 0.785156 197.378906 0.757812 197.5625 0.664062 203.128906 C 0.515625 211.296875 1.179688 214.199219 4.113281 218.34375 C 6.59375 221.824219 10.496094 224.488281 14.671875 225.546875 C 16.246094 225.941406 32.851562 226 158.207031 226 C 313.996094 226 301.5625 226.152344 305.644531 224.15625 C 310.699219 221.703125 314.175781 217.40625 315.71875 211.78125 C 316.144531 210.207031 316.265625 208.605469 316.265625 203.613281 C 316.265625 197.804688 316.234375 197.320312 315.597656 196.167969 C 315.234375 195.503906 311.574219 190.8125 307.492188 185.730469 C 299.625 176.019531 298.929688 175.050781 297.871094 172.238281 L 297.207031 170.484375 L 296.902344 22.84375 L 296.238281 20.542969 C 294.664062 15.15625 292.304688 11.285156 288.34375 7.535156 C 285.410156 4.75 282.957031 3.175781 279.511719 1.84375 C 274.367188 -0.152344 284.289062 0 158.296875 0.03125 C 64.3125 0.0585938 43.652344 0.121094 42.046875 0.453125 Z M 269.527344 98.476562 L 269.527344 169.425781 L 47.492188 169.425781 L 47.492188 27.53125 L 269.527344 27.53125 Z M 188.761719 197.925781 C 188.761719 199.011719 187.914062 202.339844 187.367188 203.398438 C 186.523438 205.09375 184.222656 207.210938 182.46875 207.847656 C 180.925781 208.421875 180.078125 208.453125 158.390625 208.453125 L 135.914062 208.453125 L 134.066406 207.542969 C 130.800781 205.882812 129.136719 203.371094 128.925781 199.589844 L 128.773438 197.257812 L 188.761719 197.257812 Z M 188.761719 197.925781 "/>
<path style=" stroke:none;fill-rule:nonzero;fill:rgb(0%,0%,0%);fill-opacity:1;" d="M 152.308594 96.238281 C 140.179688 117.539062 130.195312 135.117188 130.136719 135.328125 C 130.105469 135.539062 132.644531 137.171875 136.277344 139.230469 L 142.476562 142.738281 L 164.742188 103.742188 C 176.992188 82.261719 186.945312 64.652344 186.914062 64.625 C 186.824219 64.53125 181.679688 61.628906 175.902344 58.390625 L 174.390625 57.542969 Z M 152.308594 96.238281 "/>
<path style=" stroke:none;fill-rule:nonzero;fill:rgb(0%,0%,0%);fill-opacity:1;" d="M 92.746094 81.960938 L 74.597656 100.113281 L 77.378906 103.078125 C 78.890625 104.710938 86.96875 112.878906 95.347656 121.257812 L 110.5625 136.445312 L 115.707031 131.304688 L 120.847656 126.160156 L 107.839844 113.152344 L 94.832031 100.140625 L 107.8125 87.164062 C 114.949219 80.023438 120.726562 74.0625 120.667969 73.882812 C 120.578125 73.640625 111.046875 63.835938 110.898438 63.835938 C 110.867188 63.835938 102.699219 72.003906 92.746094 81.960938 Z M 92.746094 81.960938 "/>
<path style=" stroke:none;fill-rule:nonzero;fill:rgb(0%,0%,0%);fill-opacity:1;" d="M 201.011719 68.980469 L 195.867188 74.125 L 221.882812 100.140625 L 195.929688 126.101562 L 200.859375 131.273438 C 203.582031 134.117188 205.882812 136.445312 205.972656 136.445312 C 206.0625 136.445312 214.320312 128.277344 224.273438 118.324219 L 242.394531 100.203125 L 224.484375 82.078125 C 214.625 72.125 206.457031 63.957031 206.367188 63.898438 C 206.246094 63.867188 203.824219 66.136719 201.011719 68.980469 Z M 201.011719 68.980469 "/>
<path style=" stroke:none;fill-rule:nonzero;fill:rgb(0%,0%,0%);fill-opacity:1;" d="M 331.933594 20.421875 C 331.570312 20.664062 331.027344 21.511719 330.722656 22.296875 C 330.210938 23.6875 330.179688 27.167969 330.179688 113.152344 L 330.179688 202.554688 L 330.84375 203.976562 C 331.691406 205.820312 332.417969 206.214844 333.476562 205.398438 C 335.289062 203.976562 335.171875 210.054688 335.109375 112.394531 C 335.019531 23.808594 335.019531 23.144531 334.414062 21.964844 C 333.597656 20.332031 332.78125 19.847656 331.933594 20.421875 Z M 331.933594 20.421875 "/>
<path style=" stroke:none;fill-rule:nonzero;fill:rgb(0%,0%,0%);fill-opacity:1;" d="M 419.75 29.316406 C 419.265625 29.40625 418.628906 29.832031 418.296875 30.253906 C 417.8125 30.921875 417.78125 31.222656 418.054688 32.644531 C 418.207031 33.550781 418.359375 38.574219 418.359375 43.839844 C 418.359375 49.101562 418.449219 56.96875 418.570312 61.355469 C 418.75 69.253906 418.75 69.3125 419.539062 70.523438 C 420.625 72.21875 422.230469 72.914062 424.953125 72.914062 C 429.066406 72.914062 430.214844 71.824219 429.550781 68.527344 C 428.855469 64.957031 427.796875 64.472656 426.011719 66.863281 C 424.769531 68.527344 424.257812 68.738281 423.984375 67.648438 C 423.832031 66.984375 424.195312 57.511719 425.042969 39.90625 C 425.40625 32.703125 425.40625 32.433594 424.832031 31.433594 C 423.863281 29.800781 421.746094 28.921875 419.75 29.316406 Z M 419.75 29.316406 "/>
<path style=" stroke:none;fill-rule:nonzero;fill:rgb(0%,0%,0%);fill-opacity:1;" d="M 366.265625 31.039062 C 361.488281 31.886719 357.644531 33.734375 355.347656 36.273438 C 353.804688 38 352.988281 39.753906 351.019531 45.59375 C 349.386719 50.402344 349.296875 50.859375 349.144531 54.304688 C 348.933594 59.660156 349.691406 62.382812 352.140625 65.167969 C 355.4375 68.917969 360.851562 70.765625 365.902344 69.917969 C 369.535156 69.28125 376.824219 65.167969 380.121094 61.871094 C 383.148438 58.84375 385.476562 53.671875 384.960938 51.039062 C 384.207031 47.074219 378.15625 45.835938 366.023438 47.167969 C 362.242188 47.589844 359.976562 47.984375 359.703125 48.253906 C 359.371094 48.589844 359.429688 48.890625 360.15625 50.253906 C 361.820312 53.308594 362.910156 53.609375 370.261719 53.066406 C 377.246094 52.523438 376.613281 52.460938 376.613281 53.703125 C 376.613281 55.003906 375.765625 55.878906 371.5 59.117188 C 368.023438 61.71875 365.632812 63.019531 363.089844 63.683594 C 358.339844 64.925781 356.375 63.65625 355.527344 58.753906 C 354.773438 54.457031 355.074219 50.496094 356.464844 46.230469 C 357.886719 41.78125 358.765625 40.691406 362.183594 39.027344 C 365.601562 37.394531 367.929688 36.941406 374.222656 36.636719 C 378.910156 36.425781 379.789062 36.304688 380.453125 35.789062 C 381.90625 34.730469 381.996094 34.308594 381 33.25 C 380.484375 32.734375 379.605469 32.070312 379.003906 31.738281 C 376.671875 30.558594 370.742188 30.222656 366.265625 31.039062 Z M 366.265625 31.039062 "/>
<path style=" stroke:none;fill-rule:nonzero;fill:rgb(0%,0%,0%);fill-opacity:1;" d="M 504.601562 31.34375 C 498.367188 32.25 492.804688 34.125 491.410156 35.761719 C 490.503906 36.851562 490.472656 36.878906 491.351562 38.152344 C 492.136719 39.332031 494.285156 40.539062 495.644531 40.539062 C 496.160156 40.539062 498.003906 40.058594 499.730469 39.453125 C 502.816406 38.394531 507.746094 37.152344 507.988281 37.394531 C 508.046875 37.453125 507.988281 38.484375 507.835938 39.695312 C 507.714844 40.902344 507.324219 45.289062 506.988281 49.464844 C 506.234375 58.785156 505.902344 61.71875 505.296875 65.199219 C 505.054688 66.679688 504.75 68.34375 504.660156 68.859375 C 504.417969 70.371094 505.355469 71.097656 507.59375 71.097656 C 510.863281 71.097656 510.832031 71.21875 513.191406 46.742188 C 514.191406 36.367188 514.070312 37 515.25 36.636719 C 515.792969 36.488281 518.453125 36.214844 521.207031 36.03125 C 528.558594 35.519531 535.484375 34.792969 536.332031 34.367188 C 537.089844 34.035156 537.511719 32.824219 537.027344 32.34375 C 536.878906 32.191406 533.15625 31.796875 528.769531 31.464844 C 519.484375 30.769531 508.925781 30.707031 504.601562 31.34375 Z M 504.601562 31.34375 "/>
<path style=" stroke:none;fill-rule:nonzero;fill:rgb(0%,0%,0%);fill-opacity:1;" d="M 582.101562 33.582031 L 581.101562 34.1875 L 581.101562 39.695312 C 581.132812 45.140625 581.222656 46.53125 582.160156 52.492188 C 582.402344 54.15625 582.765625 58.722656 582.949219 62.625 C 583.3125 70.765625 583.28125 70.675781 586.214844 71.398438 C 588.453125 71.945312 588.9375 71.519531 590.328125 67.859375 C 591.8125 64.046875 593.019531 61.597656 593.867188 60.8125 C 595.046875 59.722656 596.167969 60.117188 597.136719 61.992188 C 597.347656 62.382812 597.648438 64.835938 597.800781 67.40625 C 598.101562 72.550781 598.34375 73.335938 599.949219 74.546875 C 601.429688 75.667969 602.550781 75.816406 603.578125 75.03125 C 604.394531 74.394531 604.394531 74.394531 604.394531 70.402344 C 604.394531 64.199219 603.519531 61.144531 601.066406 58.695312 C 598.285156 55.910156 594.898438 55.214844 590.148438 56.425781 C 589.359375 56.636719 589.332031 56.605469 588.875 53.945312 C 588.210938 50.28125 588.058594 48.589844 587.789062 41.601562 C 587.605469 36.488281 587.484375 35.429688 587 34.703125 C 585.882812 32.976562 583.824219 32.523438 582.101562 33.582031 Z M 582.101562 33.582031 "/>
<path style=" stroke:none;fill-rule:nonzero;fill:rgb(0%,0%,0%);fill-opacity:1;" d="M 396.394531 44.777344 C 392.917969 45.289062 391.738281 46.109375 391.738281 47.984375 C 391.738281 49.40625 393.007812 49.769531 397.242188 49.496094 C 401.8125 49.222656 403.535156 49.769531 403.535156 51.523438 C 403.535156 52.128906 403.082031 52.28125 399.964844 52.640625 C 396.425781 53.097656 394.519531 54.003906 392.222656 56.363281 C 389.921875 58.753906 388.710938 60.933594 388.5 63.050781 C 388.199219 66.046875 389.5 68.074219 392.734375 69.617188 C 396.910156 71.582031 401.175781 71.460938 403.714844 69.253906 C 405.835938 67.40625 406.378906 67.4375 408.34375 69.253906 C 409.464844 70.3125 410.21875 70.433594 410.976562 69.675781 C 411.429688 69.191406 411.460938 68.585938 411.308594 63.230469 C 411.066406 56.484375 410.765625 54.035156 409.855469 51.554688 C 408.101562 46.925781 402.144531 43.898438 396.394531 44.777344 Z M 403.445312 57.179688 C 404.503906 57.816406 405.046875 59.207031 405.046875 61.324219 C 405.046875 63.171875 403.566406 64.714844 400.359375 66.257812 C 397.210938 67.800781 395.882812 67.859375 395.1875 66.5 C 393.644531 63.503906 398.210938 57 402.171875 56.605469 C 402.355469 56.605469 402.898438 56.847656 403.445312 57.179688 Z M 403.445312 57.179688 "/>
<path style=" stroke:none;fill-rule:nonzero;fill:rgb(0%,0%,0%);fill-opacity:1;" d="M 441.769531 44.777344 C 438.292969 45.289062 436.960938 46.230469 437.171875 48.011719 C 437.324219 49.40625 438.261719 49.675781 442.40625 49.496094 C 447.277344 49.253906 448.910156 49.769531 448.910156 51.523438 C 448.910156 52.128906 448.457031 52.28125 445.339844 52.640625 C 441.800781 53.097656 439.894531 54.003906 437.597656 56.363281 C 434.148438 59.964844 432.96875 63.503906 434.359375 66.195312 C 435.207031 67.859375 436.023438 68.585938 438.171875 69.617188 C 442.347656 71.582031 446.550781 71.460938 449.0625 69.28125 C 451.210938 67.4375 451.964844 67.4375 453.839844 69.34375 C 454.839844 70.339844 456.019531 70.460938 456.472656 69.617188 C 457.109375 68.40625 456.652344 56.667969 455.835938 53.308594 C 455.019531 50.011719 453.175781 47.679688 450.210938 46.167969 C 447.640625 44.867188 444.492188 44.351562 441.769531 44.777344 Z M 449.273438 57.390625 C 449.9375 57.996094 450.421875 59.660156 450.421875 61.324219 C 450.421875 62.382812 450.210938 62.839844 449.332031 63.835938 C 447.398438 65.984375 442.40625 68.074219 441.164062 67.226562 C 439.199219 65.925781 440.441406 61.660156 443.648438 58.722656 C 445.914062 56.636719 447.910156 56.183594 449.273438 57.390625 Z M 449.273438 57.390625 "/>
<path style=" stroke:none;fill-rule:nonzero;fill:rgb(0%,0%,0%);fill-opacity:1;" d="M 471.234375 46.5625 C 469.660156 47.074219 468.269531 48.164062 466.605469 50.160156 C 464.398438 52.855469 463.640625 54.789062 463.613281 58.117188 C 463.582031 60.476562 463.671875 60.871094 464.609375 62.71875 C 465.820312 65.078125 468.210938 67.496094 470.296875 68.433594 C 471.476562 68.949219 472.476562 69.101562 475.621094 69.222656 C 480.460938 69.375 481.429688 69.070312 484.179688 66.4375 C 486.058594 64.625 486.117188 64.53125 486.117188 63.019531 L 486.117188 61.476562 L 484.847656 61.628906 C 484.089844 61.71875 482.578125 62.355469 481.277344 63.109375 C 478.039062 64.988281 476.980469 65.347656 475.015625 65.347656 C 471.628906 65.347656 470.085938 63.804688 470.085938 60.328125 C 470.085938 55.125 473.078125 51.734375 477.679688 51.734375 C 480.007812 51.734375 480.976562 51.21875 480.976562 49.949219 C 480.976562 48.164062 477.917969 46.53125 474.320312 46.410156 C 473.078125 46.351562 471.6875 46.441406 471.234375 46.5625 Z M 471.234375 46.5625 "/>
<path style=" stroke:none;fill-rule:nonzero;fill:rgb(0%,0%,0%);fill-opacity:1;" d="M 533.914062 46.863281 C 529.828125 48.195312 526.683594 50.3125 525.714844 52.460938 C 524.65625 54.820312 525.140625 59.027344 526.835938 62.382812 C 527.894531 64.472656 530.886719 67.375 533.1875 68.585938 C 539.265625 71.792969 547.3125 70.824219 550.15625 66.589844 C 551.398438 64.746094 550.820312 62.019531 549.1875 62.019531 C 548.796875 62.019531 547.738281 62.625 546.800781 63.414062 C 542.746094 66.679688 539.78125 67.375 536.605469 65.710938 C 535.0625 64.894531 533.609375 63.324219 533.609375 62.445312 C 533.609375 62.140625 534.09375 62.019531 535.304688 62.019531 C 536.816406 62.019531 537.300781 61.839844 539.902344 60.296875 C 543.378906 58.269531 545.316406 56.546875 546.464844 54.425781 C 547.949219 51.675781 547.464844 49.707031 544.894531 48.195312 C 541.6875 46.320312 537.238281 45.773438 533.914062 46.863281 Z M 539.597656 50.28125 C 539.992188 50.675781 540.082031 51.703125 539.78125 52.460938 C 539.660156 52.734375 538.117188 54.125 536.300781 55.546875 C 533.457031 57.785156 532.945312 58.058594 532.398438 57.785156 C 530.976562 57.03125 532.128906 53.640625 534.546875 51.613281 C 536.394531 50.070312 538.753906 49.4375 539.597656 50.28125 Z M 539.597656 50.28125 "/>
<path style=" stroke:none;fill-rule:nonzero;fill:rgb(0%,0%,0%);fill-opacity:1;" d="M 560.835938 46.5625 C 558.597656 47.289062 555.601562 50.160156 554.210938 52.882812 C 553.363281 54.546875 552.878906 57.363281 553.089844 59.269531 C 553.515625 62.839844 556.265625 66.679688 559.59375 68.285156 C 561.136719 69.039062 561.683594 69.132812 565.28125 69.222656 C 568.941406 69.34375 569.425781 69.28125 570.695312 68.675781 C 571.453125 68.285156 572.84375 67.285156 573.78125 66.4375 C 575.355469 64.957031 575.445312 64.773438 575.597656 63.171875 L 575.71875 61.476562 L 574.417969 61.628906 C 573.628906 61.71875 572.148438 62.324219 570.816406 63.109375 C 567.582031 64.988281 566.523438 65.347656 564.554688 65.347656 C 561.167969 65.347656 559.625 63.804688 559.625 60.328125 C 559.625 57.816406 560.320312 55.730469 561.652344 54.183594 C 563.132812 52.429688 564.707031 51.734375 567.1875 51.734375 C 569.546875 51.734375 570.515625 51.21875 570.515625 49.949219 C 570.515625 48.195312 567.519531 46.589844 563.859375 46.410156 C 562.621094 46.351562 561.257812 46.410156 560.835938 46.5625 Z M 560.835938 46.5625 "/>
<path style=" stroke:none;fill-rule:nonzero;fill:rgb(0%,0%,0%);fill-opacity:1;" d="M 364.574219 90.007812 C 362.03125 90.582031 357.34375 92.851562 355.800781 94.242188 C 355.105469 94.847656 354.105469 96.238281 353.5625 97.328125 C 352.714844 99.082031 352.59375 99.628906 352.59375 101.777344 C 352.59375 103.894531 352.714844 104.527344 353.53125 106.285156 C 354.347656 108.007812 355.164062 108.976562 359.21875 112.910156 C 366.175781 119.714844 368.476562 122.710938 368.023438 124.496094 C 367.75 125.523438 365.8125 126.886719 363.363281 127.734375 C 360.640625 128.671875 354.078125 128.761719 352.472656 127.886719 C 351.597656 127.402344 351.503906 127.21875 351.65625 126.492188 C 351.835938 125.585938 351.203125 124.738281 350.597656 125.101562 C 349.933594 125.496094 349.085938 127.703125 349.085938 128.972656 C 349.085938 130.304688 349.992188 132.121094 351.171875 133.058594 C 353.289062 134.8125 356.980469 135.480469 361.488281 134.933594 C 368.566406 134.058594 373.40625 131.121094 374.675781 126.886719 C 375.222656 125.070312 375.007812 123.859375 373.679688 121.199219 C 372.5 118.839844 370.925781 116.660156 367.929688 113.453125 C 366.8125 112.214844 364.996094 110.15625 363.90625 108.914062 C 362.847656 107.675781 361.09375 105.738281 360.066406 104.589844 C 358.339844 102.742188 358.160156 102.410156 358.160156 101.261719 C 358.160156 100.140625 358.339844 99.808594 359.460938 98.71875 C 361.972656 96.300781 367.113281 94.394531 371.289062 94.394531 C 373.222656 94.363281 373.496094 94.304688 374.011719 93.605469 C 374.886719 92.398438 374.796875 91.125 373.800781 90.371094 C 373.074219 89.792969 372.46875 89.703125 369.714844 89.644531 C 367.75 89.582031 365.722656 89.734375 364.574219 90.007812 Z M 364.574219 90.007812 "/>
<path style=" stroke:none;fill-rule:nonzero;fill:rgb(0%,0%,0%);fill-opacity:1;" d="M 433.242188 89.855469 C 432.878906 90.007812 432.453125 90.460938 432.304688 90.824219 C 432.121094 91.367188 431.335938 103.078125 431.363281 105.34375 C 431.363281 106.253906 430.488281 106.796875 428.976562 106.796875 C 427.3125 106.796875 426.828125 107.160156 426.828125 108.460938 C 426.828125 109.855469 427.523438 110.609375 429.246094 111.035156 C 430.398438 111.304688 430.789062 111.546875 430.910156 112.0625 C 431.003906 112.394531 431.09375 115.753906 431.152344 119.503906 C 431.214844 126.28125 431.242188 126.34375 432.0625 128.035156 C 433.996094 132 438.472656 133.9375 443.132812 132.816406 C 445.824219 132.179688 446.945312 130.609375 445.792969 129.066406 C 445.28125 128.371094 444.371094 128.371094 441.863281 129.066406 C 440.015625 129.578125 439.746094 129.578125 438.988281 129.1875 C 437.566406 128.371094 437.324219 127.007812 437.355469 120.414062 L 437.382812 114.511719 L 438.414062 113.574219 C 439.289062 112.757812 439.894531 112.546875 443.011719 111.972656 C 444.976562 111.609375 446.851562 111.15625 447.15625 111.003906 C 448.214844 110.429688 447.667969 107.101562 446.519531 107.101562 C 446.398438 107.101562 445.066406 107.3125 443.527344 107.585938 C 442.011719 107.828125 440.257812 108.007812 439.625 107.949219 C 438.503906 107.855469 438.472656 107.828125 438.503906 106.648438 C 438.535156 105.980469 438.835938 102.984375 439.167969 99.960938 C 439.835938 94.453125 439.804688 93.484375 438.898438 91.761719 C 438.203125 90.460938 434.691406 89.28125 433.242188 89.855469 Z M 433.242188 89.855469 "/>
<path style=" stroke:none;fill-rule:nonzero;fill:rgb(0%,0%,0%);fill-opacity:1;" d="M 412.035156 99.476562 C 410.28125 100.355469 409.917969 101.140625 409.585938 104.984375 C 409.433594 106.886719 409.28125 110.066406 409.28125 112 C 409.28125 116.722656 408.890625 118.476562 407.710938 119.203125 C 407.195312 119.503906 406.316406 119.835938 405.773438 119.957031 C 404.351562 120.199219 403.957031 121.015625 404.773438 122.046875 C 405.230469 122.621094 405.683594 122.832031 406.4375 122.832031 C 407.710938 122.832031 409.132812 123.527344 409.585938 124.34375 C 409.765625 124.648438 410.339844 127.339844 410.914062 130.304688 C 412.640625 139.261719 414.121094 145.644531 414.695312 146.429688 C 415.121094 147.035156 415.542969 147.21875 416.722656 147.277344 C 418.933594 147.398438 419.417969 146.914062 419.355469 144.707031 C 419.324219 143.738281 418.476562 138.867188 417.480469 133.84375 C 416.453125 128.824219 415.636719 124.527344 415.636719 124.253906 C 415.636719 123.980469 415.9375 123.40625 416.332031 122.984375 C 416.90625 122.316406 417.539062 122.078125 420.625 121.53125 C 422.621094 121.167969 424.558594 120.625 424.953125 120.351562 L 425.648438 119.867188 L 424.710938 118.777344 C 423.410156 117.328125 421.988281 116.964844 418.449219 117.234375 L 415.664062 117.449219 L 415.453125 116.628906 C 415.332031 116.175781 415.332031 113.90625 415.394531 111.609375 C 415.574219 106.433594 415.847656 105.890625 418.023438 105.890625 C 420.082031 105.890625 420.929688 105.164062 420.929688 103.410156 C 420.929688 101.65625 420.203125 100.625 418.359375 99.6875 C 416.511719 98.75 413.636719 98.660156 412.035156 99.476562 Z M 412.035156 99.476562 "/>
<path style=" stroke:none;fill-rule:nonzero;fill:rgb(0%,0%,0%);fill-opacity:1;" d="M 528.285156 104.589844 C 527.921875 104.648438 527.378906 104.984375 527.074219 105.34375 C 526.53125 105.921875 526.5 106.738281 526.410156 116.296875 C 526.351562 121.957031 526.410156 127.066406 526.5 127.613281 C 526.714844 128.792969 528.617188 130.878906 529.769531 131.152344 C 530.765625 131.425781 532.398438 131.152344 533.125 130.609375 C 533.457031 130.367188 533.851562 129.246094 534.214844 127.523438 C 534.878906 124.195312 535.695312 121.984375 537.117188 119.625 C 539.933594 114.9375 541.988281 113.089844 546.769531 110.882812 C 551.246094 108.824219 551.304688 108.792969 551.304688 108.160156 C 551.304688 107.585938 551.09375 107.554688 546.921875 107.585938 C 541.808594 107.585938 540.054688 108.007812 537.542969 109.734375 C 536.121094 110.699219 535.695312 111.277344 534.546875 113.542969 C 533.820312 114.996094 533.15625 116.144531 533.125 116.085938 C 533.066406 116.027344 533.15625 114.84375 533.308594 113.421875 C 533.792969 109.277344 533.761719 106.886719 533.15625 106.011719 C 532.308594 104.710938 530.433594 104.164062 528.285156 104.589844 Z M 528.285156 104.589844 "/>
<path style=" stroke:none;fill-rule:nonzero;fill:rgb(0%,0%,0%);fill-opacity:1;" d="M 502.542969 106.648438 C 499.972656 107.222656 499.488281 107.523438 499.246094 108.824219 C 498.824219 111.003906 499.820312 111.425781 504.871094 111.15625 C 508.773438 110.941406 510.378906 111.335938 510.769531 112.578125 C 511.105469 113.574219 510.46875 113.878906 507.261719 114.332031 C 503.542969 114.816406 502.210938 115.449219 499.699219 117.960938 C 493.863281 123.800781 494.707031 129.578125 501.726562 131.910156 C 504.054688 132.695312 507.140625 132.847656 508.894531 132.242188 C 509.53125 132.03125 510.679688 131.304688 511.4375 130.636719 C 513.128906 129.1875 514.007812 129.214844 515.792969 130.851562 C 517.09375 132.03125 517.609375 132.152344 518.304688 131.425781 C 518.695312 131.0625 518.789062 130.214844 518.789062 127.28125 C 518.789062 122.894531 518.332031 117.023438 517.851562 115.027344 C 516.730469 110.550781 513.492188 107.585938 508.5625 106.527344 C 506.535156 106.101562 504.902344 106.132812 502.542969 106.648438 Z M 511.011719 118.898438 C 512.433594 120.019531 512.859375 123.164062 511.828125 124.890625 C 510.832031 126.492188 506.050781 129.1875 504.148438 129.1875 C 503.238281 129.1875 502.453125 128.308594 502.242188 126.976562 C 501.878906 124.617188 504.871094 120.171875 507.6875 118.871094 C 509.320312 118.144531 510.046875 118.144531 511.011719 118.898438 Z M 511.011719 118.898438 "/>
<path style=" stroke:none;fill-rule:nonzero;fill:rgb(0%,0%,0%);fill-opacity:1;" d="M 489.414062 108.703125 C 487.539062 109.972656 485.511719 112.910156 482.609375 118.65625 C 481.066406 121.773438 479.492188 124.527344 479.128906 124.769531 C 477.769531 125.707031 477.011719 124.558594 476.285156 120.535156 C 475.378906 115.601562 474.652344 114.332031 472.382812 113.726562 C 469.632812 112.96875 468.027344 114.300781 465.394531 119.445312 C 464.488281 121.230469 463.492188 123.015625 463.1875 123.40625 C 462.613281 124.132812 462.582031 124.132812 462.28125 123.527344 C 461.765625 122.589844 460.707031 118.566406 460.707031 117.570312 C 460.707031 114.210938 456.410156 111.335938 453.871094 113 C 452.539062 113.847656 452.359375 114.695312 452.964844 117.328125 C 455.324219 127.550781 456.894531 130.578125 460.859375 132.542969 C 464.367188 134.269531 465.699219 133.453125 468.117188 128.066406 C 468.933594 126.28125 469.632812 124.738281 469.660156 124.707031 C 469.691406 124.648438 470.871094 125.738281 472.261719 127.128906 C 475.226562 130.152344 478.132812 131.816406 479.855469 131.484375 C 482.035156 131.0625 485.664062 127.28125 488.808594 122.078125 C 490.414062 119.445312 492.804688 113.574219 492.984375 111.878906 C 493.226562 109.613281 492.53125 108.007812 491.320312 108.007812 C 490.835938 108.007812 489.988281 108.3125 489.414062 108.703125 Z M 489.414062 108.703125 "/>
<path style=" stroke:none;fill-rule:nonzero;fill:rgb(0%,0%,0%);fill-opacity:1;" d="M 559.625 108.550781 C 558.71875 108.855469 557.144531 109.550781 556.117188 110.066406 C 552.214844 112.03125 551.003906 113.785156 551.0625 117.386719 C 551.183594 126.433594 559.625 133.300781 569.003906 131.96875 C 571.96875 131.546875 573.660156 130.851562 575.023438 129.457031 C 576.929688 127.582031 577.351562 124.921875 575.898438 123.890625 C 575.082031 123.347656 574.296875 123.648438 572.179688 125.402344 C 569.488281 127.582031 568.277344 128.097656 565.828125 128.097656 C 562.800781 128.097656 560.503906 126.765625 559.65625 124.558594 L 559.324219 123.742188 L 561.078125 123.742188 C 562.621094 123.742188 563.105469 123.558594 565.828125 121.957031 C 569.304688 119.929688 571.027344 118.386719 572.300781 116.117188 C 573.660156 113.757812 573.570312 112.515625 571.96875 110.882812 C 570.121094 109.066406 567.792969 108.25 564.164062 108.097656 C 561.953125 108.039062 560.894531 108.128906 559.625 108.550781 Z M 565.675781 112.546875 C 566.039062 113.878906 565.492188 114.574219 562.136719 117.207031 C 559.171875 119.566406 558.839844 119.746094 558.265625 119.382812 C 557.929688 119.171875 557.597656 118.75 557.566406 118.445312 C 557.355469 117.507812 558.445312 115.300781 559.714844 113.96875 C 561.320312 112.335938 562.769531 111.609375 564.285156 111.699219 C 565.28125 111.789062 565.523438 111.910156 565.675781 112.546875 Z M 565.675781 112.546875 "/>
<path style=" stroke:none;fill-rule:nonzero;fill:rgb(0%,0%,0%);fill-opacity:1;" d="M 386.292969 109.972656 C 383.75 110.699219 381.964844 111.667969 381.363281 112.726562 C 380.664062 114 379.941406 117.839844 379.941406 120.351562 C 379.941406 123.921875 381.964844 127.066406 385.292969 128.761719 C 387.625 129.941406 391.253906 130.152344 393.28125 129.246094 C 396.125 128.007812 399.664062 123.890625 400.84375 120.535156 C 402.355469 116.265625 400.660156 112.820312 396.03125 110.640625 C 394.25 109.792969 393.644531 109.671875 390.980469 109.613281 C 388.984375 109.550781 387.382812 109.671875 386.292969 109.972656 Z M 391.648438 112.394531 C 393.160156 113.03125 393.824219 113.664062 394.492188 115.117188 C 395.214844 116.691406 395.214844 118.628906 394.492188 120.050781 C 393.703125 121.5625 390.980469 124.558594 389.863281 125.132812 C 389.046875 125.554688 388.925781 125.554688 388.347656 125.042969 C 387.5625 124.34375 387.199219 123.40625 386.898438 121.199219 C 386.65625 119.566406 386.714844 119.171875 387.804688 116.054688 C 388.894531 113.03125 389.527344 111.941406 390.285156 111.941406 C 390.4375 111.941406 391.042969 112.152344 391.648438 112.394531 Z M 391.648438 112.394531 "/>
<path style=" stroke:none;fill-rule:nonzero;fill:rgb(0%,0%,0%);fill-opacity:1;" d="M 363.90625 151.875 C 360.699219 152.722656 356.917969 154.691406 355.40625 156.324219 C 352.59375 159.378906 351.808594 163.554688 353.320312 167.457031 C 353.925781 169.0625 354.710938 169.96875 359.792969 175.171875 C 367.6875 183.191406 368.867188 184.976562 367.71875 186.761719 C 367.113281 187.636719 364.390625 189.121094 362.242188 189.726562 C 360.003906 190.359375 354.105469 190.269531 352.59375 189.605469 C 351.566406 189.148438 351.445312 189 351.597656 188.242188 C 351.835938 187.09375 351.382812 186.425781 350.6875 186.851562 C 349.265625 187.699219 348.632812 190.964844 349.507812 192.691406 C 350.023438 193.6875 351.714844 195.230469 353.046875 195.925781 C 355.105469 196.984375 361.304688 196.957031 365.570312 195.867188 C 369.320312 194.898438 372.832031 192.386719 374.222656 189.664062 C 376.066406 186.003906 374.375 182.160156 367.355469 174.417969 C 365.722656 172.570312 363.90625 170.542969 363.332031 169.878906 C 362.757812 169.210938 361.609375 167.910156 360.730469 166.972656 C 358.523438 164.613281 358.160156 163.980469 358.160156 162.738281 C 358.160156 159.683594 365.085938 156.144531 371.046875 156.113281 C 373.316406 156.113281 373.648438 155.929688 374.496094 154.359375 C 375.070312 153.207031 374.644531 152.300781 373.285156 151.753906 C 371.5625 151.058594 366.839844 151.121094 363.90625 151.875 Z M 363.90625 151.875 "/>
<path style=" stroke:none;fill-rule:nonzero;fill:rgb(0%,0%,0%);fill-opacity:1;" d="M 453.628906 151.90625 L 452.84375 152.632812 L 452.480469 159.984375 C 452.238281 164.796875 451.996094 167.519531 451.753906 167.851562 C 451.511719 168.214844 450.90625 168.367188 449.789062 168.394531 C 447.910156 168.425781 447.277344 169.03125 447.578125 170.484375 C 447.851562 171.785156 448.546875 172.417969 449.816406 172.632812 C 451.84375 172.964844 451.753906 172.632812 451.933594 180.832031 C 452.085938 188.0625 452.117188 188.394531 452.84375 189.816406 C 455.050781 194.140625 460.917969 196.109375 465.335938 193.960938 C 466.910156 193.203125 467.273438 192.476562 466.757812 191.207031 C 466.242188 189.96875 465.699219 189.875 463.066406 190.632812 C 460.253906 191.449219 459.4375 191.238281 458.679688 189.453125 C 458.105469 188.121094 457.804688 181.859375 458.136719 178.378906 C 458.4375 174.902344 458.710938 174.660156 463.882812 173.628906 C 466.183594 173.144531 468.148438 172.691406 468.238281 172.570312 C 468.574219 172.238281 468.421875 169.453125 468.058594 169.089844 C 467.753906 168.789062 466.96875 168.820312 464.246094 169.273438 C 460.433594 169.878906 459.195312 169.757812 459.195312 168.789062 C 459.195312 168.425781 459.46875 165.761719 459.832031 162.828125 C 460.554688 156.839844 460.496094 154.660156 459.589844 153.449219 C 458.890625 152.453125 457.378906 151.664062 455.6875 151.394531 C 454.65625 151.242188 454.324219 151.332031 453.628906 151.90625 Z M 453.628906 151.90625 "/>
<path style=" stroke:none;fill-rule:nonzero;fill:rgb(0%,0%,0%);fill-opacity:1;" d="M 407.316406 152.84375 C 406.316406 153.417969 406.226562 153.753906 406.4375 156.324219 C 406.53125 157.714844 406.710938 166.429688 406.832031 175.71875 L 407.015625 192.628906 L 407.890625 193.898438 C 409.191406 195.746094 409.949219 196.046875 413.515625 196.046875 C 416.390625 196.046875 416.601562 196.019531 417.359375 195.261719 C 418.054688 194.566406 418.117188 194.324219 417.964844 192.691406 C 417.8125 190.875 416.964844 188.757812 416.332031 188.546875 C 415.9375 188.425781 415.03125 189.269531 413.789062 190.875 C 413.277344 191.601562 412.882812 191.84375 412.609375 191.660156 C 412.15625 191.359375 412.308594 184.792969 413.183594 167.1875 C 413.488281 161.195312 413.667969 156.023438 413.578125 155.6875 C 412.972656 153.269531 409.433594 151.636719 407.316406 152.84375 Z M 407.316406 152.84375 "/>
<path style=" stroke:none;fill-rule:nonzero;fill:rgb(0%,0%,0%);fill-opacity:1;" d="M 471.507812 163.585938 C 470.71875 164.339844 471.71875 165.28125 475.4375 167.304688 L 476.679688 168.003906 L 477.769531 167.335938 C 479.703125 166.125 478.917969 164.582031 475.953125 163.828125 C 474.015625 163.34375 471.839844 163.222656 471.507812 163.585938 Z M 471.507812 163.585938 "/>
<path style=" stroke:none;fill-rule:nonzero;fill:rgb(0%,0%,0%);fill-opacity:1;" d="M 550.703125 164.3125 C 546.949219 165.066406 545.859375 165.734375 544.921875 167.730469 C 543.53125 170.753906 544.015625 172.660156 547.738281 178.378906 C 551.214844 183.734375 551.457031 184.21875 551.457031 185.972656 C 551.457031 187.757812 550.550781 189.421875 548.917969 190.722656 C 547.796875 191.632812 547.675781 191.660156 544.921875 191.601562 C 543.351562 191.570312 542.078125 191.632812 542.078125 191.722656 C 542.078125 191.8125 542.382812 192.417969 542.746094 193.054688 C 543.652344 194.71875 545.800781 195.746094 548.28125 195.746094 C 551.972656 195.746094 554.511719 194.203125 556.328125 190.84375 C 557.265625 189.121094 557.355469 188.695312 557.355469 186.519531 C 557.355469 183.644531 557.203125 183.339844 553.878906 178.953125 C 551.035156 175.203125 550.246094 173.75 550.246094 172.269531 C 550.246094 169.546875 552.273438 168.214844 556.480469 168.214844 C 558.503906 168.214844 559.503906 168.0625 560.472656 167.609375 L 561.773438 167.003906 L 561.226562 166.066406 C 559.925781 163.859375 556.085938 163.191406 550.703125 164.3125 Z M 550.703125 164.3125 "/>
<path style=" stroke:none;fill-rule:nonzero;fill:rgb(0%,0%,0%);fill-opacity:1;" d="M 515.21875 169.363281 C 514.492188 170.089844 514.523438 169.9375 513.3125 178.652344 C 512.191406 187.03125 511.890625 191.417969 512.433594 192.71875 C 512.859375 193.75 513.828125 194.382812 515.519531 194.6875 C 517.757812 195.109375 517.820312 194.929688 519.242188 186.972656 C 519.664062 184.550781 520.148438 182.160156 520.300781 181.675781 C 520.722656 180.4375 522.628906 179.257812 525.171875 178.683594 C 527.921875 178.046875 528.589844 178.078125 529.496094 178.863281 C 530.191406 179.46875 530.3125 179.921875 530.585938 182.433594 C 530.734375 184.007812 530.886719 186.367188 530.886719 187.667969 C 530.886719 189.785156 530.976562 190.089844 531.675781 190.8125 C 532.339844 191.480469 532.640625 191.570312 533.820312 191.417969 C 535.636719 191.207031 536.542969 190.300781 536.9375 188.210938 C 537.84375 183.433594 536.574219 177.957031 533.914062 175.050781 C 532.066406 173.054688 530.675781 172.632812 526.863281 172.875 C 525.171875 172.964844 523.265625 173.144531 522.660156 173.238281 L 521.539062 173.417969 L 521.601562 172.175781 C 521.632812 171.148438 521.480469 170.753906 520.664062 169.96875 C 519.847656 169.121094 519.453125 168.96875 517.757812 168.878906 C 516.125 168.757812 515.730469 168.847656 515.21875 169.363281 Z M 515.21875 169.363281 "/>
<path style=" stroke:none;fill-rule:nonzero;fill:rgb(0%,0%,0%);fill-opacity:1;" d="M 423.046875 169.394531 C 421.414062 170.058594 420.777344 172.328125 420.777344 177.289062 C 420.777344 185.277344 424.769531 190.601562 430.761719 190.601562 C 432.453125 190.601562 433.875 190.058594 435.933594 188.695312 L 436.75 188.152344 L 437.445312 190.117188 C 437.839844 191.207031 438.382812 192.417969 438.683594 192.78125 C 439.167969 193.445312 439.261719 193.445312 440.015625 193.023438 C 441.378906 192.265625 441.953125 189.996094 442.253906 184.25 C 442.40625 181.496094 442.527344 177.746094 442.558594 175.867188 C 442.558594 171.964844 442.347656 171.574219 440.347656 171.511719 C 436.992188 171.421875 436.6875 171.601562 436.386719 173.902344 C 436.023438 176.472656 435.539062 178.320312 434.691406 180.164062 C 433.695312 182.34375 431.636719 185.15625 430.609375 185.671875 C 429.972656 186.035156 429.820312 186.003906 429.308594 185.429688 C 427.917969 183.976562 427.28125 178.410156 428.066406 174.539062 C 428.734375 171.058594 428.402344 170.121094 426.253906 169.484375 C 424.921875 169.0625 423.921875 169.0625 423.046875 169.394531 Z M 423.046875 169.394531 "/>
<path style=" stroke:none;fill-rule:nonzero;fill:rgb(0%,0%,0%);fill-opacity:1;" d="M 388.652344 171.300781 C 384.628906 171.695312 382.027344 172.964844 381.148438 174.960938 C 379.789062 178.105469 379.605469 183.644531 380.816406 186.003906 C 383.117188 190.480469 389.105469 192.78125 393.402344 190.785156 C 395.820312 189.695312 398.632812 186.761719 400.054688 183.824219 C 402.023438 179.863281 401.8125 177.046875 399.359375 174.597656 C 396.699219 171.933594 393.160156 170.847656 388.652344 171.300781 Z M 391.648438 173.992188 C 393.550781 174.71875 395.066406 177.019531 395.066406 179.167969 C 395.035156 181.042969 394.21875 182.617188 391.949219 184.945312 C 390.285156 186.667969 389.800781 187.003906 389.136719 186.910156 C 388.015625 186.789062 387.230469 185.398438 386.898438 183.007812 C 386.65625 181.285156 386.714844 180.921875 387.867188 177.625 C 388.53125 175.6875 389.257812 174.023438 389.4375 173.902344 C 389.921875 173.570312 390.648438 173.597656 391.648438 173.992188 Z M 391.648438 173.992188 "/>
<path style=" stroke:none;fill-rule:nonzero;fill:rgb(0%,0%,0%);fill-opacity:1;" d="M 494.738281 171.269531 C 492.5 171.480469 489.929688 172.238281 488.597656 173.054688 C 487.386719 173.78125 486.875 174.960938 486.238281 178.289062 C 485.332031 183.007812 486.148438 186.09375 489.050781 188.816406 C 491.019531 190.664062 492.894531 191.359375 495.949219 191.359375 C 499.066406 191.359375 500.125 190.84375 502.9375 188.03125 C 507.867188 183.070312 508.683594 177.652344 504.992188 174.265625 C 502.421875 171.90625 498.851562 170.847656 494.738281 171.269531 Z M 497.855469 174.082031 C 498.792969 174.566406 500.09375 175.929688 500.605469 176.898438 C 501.0625 177.804688 501.03125 180.4375 500.515625 181.617188 C 500.304688 182.160156 499.183594 183.582031 498.035156 184.761719 C 494.921875 188.0625 493.710938 187.726562 492.894531 183.433594 C 492.53125 181.496094 492.5625 181.40625 493.710938 177.988281 C 494.34375 176.082031 495.042969 174.324219 495.222656 174.082031 C 495.675781 173.539062 496.824219 173.539062 497.855469 174.082031 Z M 497.855469 174.082031 "/>
<path style=" stroke:none;fill-rule:nonzero;fill:rgb(0%,0%,0%);fill-opacity:1;" d="M 474.441406 174.386719 C 473.988281 174.71875 473.746094 175.292969 473.65625 176.140625 C 473.472656 177.894531 475.105469 191.417969 475.652344 192.597656 C 476.496094 194.476562 479.765625 195.171875 481.125 193.777344 C 482.035156 192.902344 482.035156 193.234375 481.277344 184.308594 C 480.671875 176.777344 480.460938 176.019531 478.796875 174.78125 C 477.738281 173.992188 475.289062 173.75 474.441406 174.386719 Z M 474.441406 174.386719 "/>
</g>
</svg>
