<?xml version="1.0" standalone="no"?>
<!DOCTYPE svg PUBLIC "-//W3C//DTD SVG 1.0//EN" "http://www.w3.org/TR/2001/REC-SVG-20010904/DTD/svg10.dtd">
<svg xmlns="http://www.w3.org/2000/svg" xmlns:xlink="http://www.w3.org/1999/xlink" id="body_1" width="2667" height="996">

<g transform="matrix(1.3335 0 0 1.3333334 0 0)">
	<g transform="matrix(0.1 0 -0 -0.1 0 747)">
        <path d="M1390 7455C 1036 7382 774 7129 678 6768L678 6768L656 6685L650 4250L645 1815L609 1740C 583 1687 500 1572 325 1350C 189 1177 66 1015 52 990C 26 946 25 940 22 756C 17 486 39 390 136 253C 218 138 347 50 485 15C 537 2 1086 0 5230 0C 10380 0 9969 -5 10104 61C 10271 142 10386 284 10437 470C 10451 522 10455 575 10455 740C 10455 932 10454 948 10433 986C 10421 1008 10300 1163 10165 1331C 9905 1652 9882 1684 9847 1777L9847 1777L9825 1835L9820 4275L9815 6715L9793 6791C 9741 6969 9663 7097 9532 7221C 9435 7313 9354 7365 9240 7409C 9070 7475 9398 7470 5233 7469C 2126 7468 1443 7466 1390 7455zM8910 4215L8910 1870L5240 1870L1570 1870L1570 4215L1570 6560L5240 6560L8910 6560L8910 4215zM6240 928C 6240 892 6212 782 6194 747C 6166 691 6090 621 6032 600C 5981 581 5953 580 5236 580L5236 580L4493 580L4432 610C 4324 665 4269 748 4262 873L4262 873L4257 950L5249 950L6240 950L6240 928z" stroke="none" fill="#000000" fill-rule="nonzero" />
        <path d="M5035 4289C 4634 3585 4304 3004 4302 2997C 4301 2990 4385 2936 4505 2868L4505 2868L4710 2752L5446 4041C 5851 4751 6180 5333 6179 5334C 6176 5337 6006 5433 5815 5540L5815 5540L5765 5568L5035 4289z" stroke="none" fill="#000000" fill-rule="nonzero" />
        <path d="M3066 4761L2466 4161L2558 4063C 2608 4009 2875 3739 3152 3462L3152 3462L3655 2960L3825 3130L3995 3300L3565 3730L3135 4160L3564 4589C 3800 4825 3991 5022 3989 5028C 3986 5036 3671 5360 3666 5360C 3665 5360 3395 5090 3066 4761z" stroke="none" fill="#000000" fill-rule="nonzero" />
        <path d="M6645 5190L6475 5020L6905 4590L7335 4160L6906 3731L6477 3302L6640 3131C 6730 3037 6806 2960 6809 2960C 6812 2960 7085 3230 7414 3559L7414 3559L8013 4158L7421 4757C 7095 5086 6825 5356 6822 5358C 6818 5359 6738 5284 6645 5190z" stroke="none" fill="#000000" fill-rule="nonzero" />
        <path d="M10973 6795C 10961 6787 10943 6759 10933 6733C 10916 6687 10915 6572 10915 3730L10915 3730L10915 775L10937 728C 10965 667 10989 654 11024 681C 11084 728 11080 527 11078 3755C 11075 6683 11075 6705 11055 6744C 11028 6798 11001 6814 10973 6795z" stroke="none" fill="#000000" fill-rule="nonzero" />
        <path d="M13876 6501C 13860 6498 13839 6484 13828 6470C 13812 6448 13811 6438 13820 6391C 13825 6361 13830 6195 13830 6021C 13830 5847 13833 5587 13837 5442C 13843 5181 13843 5179 13869 5139C 13905 5083 13958 5060 14048 5060C 14184 5060 14222 5096 14200 5205C 14177 5323 14142 5339 14083 5260C 14042 5205 14025 5198 14016 5234C 14011 5256 14023 5569 14051 6151C 14063 6389 14063 6398 14044 6431C 14012 6485 13942 6514 13876 6501z" stroke="none" fill="#000000" fill-rule="nonzero" />
        <path d="M12108 6444C 11950 6416 11823 6355 11747 6271C 11696 6214 11669 6156 11604 5963C 11550 5804 11547 5789 11542 5675C 11535 5498 11560 5408 11641 5316C 11750 5192 11929 5131 12096 5159C 12216 5180 12457 5316 12566 5425C 12666 5525 12743 5696 12726 5783C 12701 5914 12501 5955 12100 5911C 11975 5897 11900 5884 11891 5875C 11880 5864 11882 5854 11906 5809C 11961 5708 11997 5698 12240 5716C 12471 5734 12450 5736 12450 5695C 12450 5652 12422 5623 12281 5516C 12166 5430 12087 5387 12003 5365C 11846 5324 11781 5366 11753 5528C 11728 5670 11738 5801 11784 5942C 11831 6089 11860 6125 11973 6180C 12086 6234 12163 6249 12371 6259C 12526 6266 12555 6270 12577 6287C 12625 6322 12628 6336 12595 6371C 12578 6388 12549 6410 12529 6421C 12452 6460 12256 6471 12108 6444z" stroke="none" fill="#000000" fill-rule="nonzero" />
        <path d="M16681 6434C 16475 6404 16291 6342 16245 6288C 16215 6252 16214 6251 16243 6209C 16269 6170 16340 6130 16385 6130C 16402 6130 16463 6146 16520 6166C 16622 6201 16785 6242 16793 6234C 16795 6232 16793 6198 16788 6158C 16784 6118 16771 5973 16760 5835C 16735 5527 16724 5430 16704 5315C 16696 5266 16686 5211 16683 5194C 16675 5144 16706 5120 16780 5120C 16888 5120 16887 5116 16965 5925C 16998 6268 16994 6247 17033 6259C 17051 6264 17139 6273 17230 6279C 17473 6296 17702 6320 17730 6334C 17755 6345 17769 6385 17753 6401C 17748 6406 17625 6419 17480 6430C 17173 6453 16824 6455 16681 6434z" stroke="none" fill="#000000" fill-rule="nonzero" />
        <path d="M19243 6360L19210 6340L19210 6158C 19211 5978 19214 5932 19245 5735C 19253 5680 19265 5529 19271 5400C 19283 5131 19282 5134 19379 5110C 19453 5092 19469 5106 19515 5227C 19564 5353 19604 5434 19632 5460C 19671 5496 19708 5483 19740 5421C 19747 5408 19757 5327 19762 5242C 19772 5072 19780 5046 19833 5006C 19882 4969 19919 4964 19953 4990C 19980 5011 19980 5011 19980 5143C 19980 5348 19951 5449 19870 5530C 19778 5622 19666 5645 19509 5605C 19483 5598 19482 5599 19467 5687C 19445 5808 19440 5864 19431 6095C 19425 6264 19421 6299 19405 6323C 19368 6380 19300 6395 19243 6360z" stroke="none" fill="#000000" fill-rule="nonzero" />
        <path d="M13104 5990C 12989 5973 12950 5946 12950 5884C 12950 5837 12992 5825 13132 5834C 13283 5843 13340 5825 13340 5767C 13340 5747 13325 5742 13222 5730C 13105 5715 13042 5685 12966 5607C 12890 5528 12850 5456 12843 5386C 12833 5287 12876 5220 12983 5169C 13121 5104 13262 5108 13346 5181C 13416 5242 13434 5241 13499 5181C 13536 5146 13561 5142 13586 5167C 13601 5183 13602 5203 13597 5380C 13589 5603 13579 5684 13549 5766C 13491 5919 13294 6019 13104 5990zM13337 5580C 13372 5559 13390 5513 13390 5443C 13390 5382 13341 5331 13235 5280C 13131 5229 13087 5227 13064 5272C 13013 5371 13164 5586 13295 5599C 13301 5599 13319 5591 13337 5580z" stroke="none" fill="#000000" fill-rule="nonzero" />
        <path d="M14604 5990C 14489 5973 14445 5942 14452 5883C 14457 5837 14488 5828 14625 5834C 14786 5842 14840 5825 14840 5767C 14840 5747 14825 5742 14722 5730C 14605 5715 14542 5685 14466 5607C 14352 5488 14313 5371 14359 5282C 14387 5227 14414 5203 14485 5169C 14623 5104 14762 5108 14845 5180C 14916 5241 14941 5241 15003 5178C 15036 5145 15075 5141 15090 5169C 15111 5209 15096 5597 15069 5708C 15042 5817 14981 5894 14883 5944C 14798 5987 14694 6004 14604 5990zM14852 5573C 14874 5553 14890 5498 14890 5443C 14890 5408 14883 5393 14854 5360C 14790 5289 14625 5220 14584 5248C 14519 5291 14560 5432 14666 5529C 14741 5598 14807 5613 14852 5573z" stroke="none" fill="#000000" fill-rule="nonzero" />
        <path d="M15578 5931C 15526 5914 15480 5878 15425 5812C 15352 5723 15327 5659 15326 5549C 15325 5471 15328 5458 15359 5397C 15399 5319 15478 5239 15547 5208C 15586 5191 15619 5186 15723 5182C 15883 5177 15915 5187 16006 5274C 16068 5334 16070 5337 16070 5387L16070 5387L16070 5438L16028 5433C 16003 5430 15953 5409 15910 5384C 15803 5322 15768 5310 15703 5310C 15591 5310 15540 5361 15540 5476C 15540 5648 15639 5760 15791 5760C 15868 5760 15900 5777 15900 5819C 15900 5878 15799 5932 15680 5936C 15639 5938 15593 5935 15578 5931z" stroke="none" fill="#000000" fill-rule="nonzero" />
        <path d="M17650 5921C 17515 5877 17411 5807 17379 5736C 17344 5658 17360 5519 17416 5408C 17451 5339 17550 5243 17626 5203C 17827 5097 18093 5129 18187 5269C 18228 5330 18209 5420 18155 5420C 18142 5420 18107 5400 18076 5374C 17942 5266 17844 5243 17739 5298C 17688 5325 17640 5377 17640 5406C 17640 5416 17656 5420 17696 5420C 17746 5420 17762 5426 17848 5477C 17963 5544 18027 5601 18065 5671C 18114 5762 18098 5827 18013 5877C 17907 5939 17760 5957 17650 5921zM17838 5808C 17851 5795 17854 5761 17844 5736C 17840 5727 17789 5681 17729 5634C 17635 5560 17618 5551 17600 5560C 17553 5585 17591 5697 17671 5764C 17732 5815 17810 5836 17838 5808z" stroke="none" fill="#000000" fill-rule="nonzero" />
        <path d="M18540 5931C 18466 5907 18367 5812 18321 5722C 18293 5667 18277 5574 18284 5511C 18298 5393 18389 5266 18499 5213C 18550 5188 18568 5185 18687 5182C 18808 5178 18824 5180 18866 5200C 18891 5213 18937 5246 18968 5274C 19020 5323 19023 5329 19028 5382L19028 5382L19032 5438L18989 5433C 18963 5430 18914 5410 18870 5384C 18763 5322 18728 5310 18663 5310C 18551 5310 18500 5361 18500 5476C 18500 5559 18523 5628 18567 5679C 18616 5737 18668 5760 18750 5760C 18828 5760 18860 5777 18860 5819C 18860 5877 18761 5930 18640 5936C 18599 5938 18554 5936 18540 5931z" stroke="none" fill="#000000" fill-rule="nonzero" />
        <path d="M12052 4495C 11968 4476 11813 4401 11762 4355C 11739 4335 11706 4289 11688 4253C 11660 4195 11656 4177 11656 4106C 11656 4036 11660 4015 11687 3957C 11714 3900 11741 3868 11875 3738C 12105 3513 12181 3414 12166 3355C 12157 3321 12093 3276 12012 3248C 11922 3217 11705 3214 11652 3243C 11623 3259 11620 3265 11625 3289C 11631 3319 11610 3347 11590 3335C 11568 3322 11540 3249 11540 3207C 11540 3163 11570 3103 11609 3072C 11679 3014 11801 2992 11950 3010C 12184 3039 12344 3136 12386 3276C 12404 3336 12397 3376 12353 3464C 12314 3542 12262 3614 12163 3720C 12126 3761 12066 3829 12030 3870C 11995 3911 11937 3975 11903 4013C 11846 4074 11840 4085 11840 4123C 11840 4160 11846 4171 11883 4207C 11966 4287 12136 4350 12274 4350C 12338 4351 12347 4353 12364 4376C 12393 4416 12390 4458 12357 4483C 12333 4502 12313 4505 12222 4507C 12157 4509 12090 4504 12052 4495z" stroke="none" fill="#000000" fill-rule="nonzero" />
        <path d="M14322 4500C 14310 4495 14296 4480 14291 4468C 14285 4450 14259 4063 14260 3988C 14260 3958 14231 3940 14181 3940C 14126 3940 14110 3928 14110 3885C 14110 3839 14133 3814 14190 3800C 14228 3791 14241 3783 14245 3766C 14248 3755 14251 3644 14253 3520C 14255 3296 14256 3294 14283 3238C 14347 3107 14495 3043 14649 3080C 14738 3101 14775 3153 14737 3204C 14720 3227 14690 3227 14607 3204C 14546 3187 14537 3187 14512 3200C 14465 3227 14457 3272 14458 3490L14458 3490L14459 3685L14493 3716C 14522 3743 14542 3750 14645 3769C 14710 3781 14772 3796 14782 3801C 14817 3820 14799 3930 14761 3930C 14757 3930 14713 3923 14662 3914C 14612 3906 14554 3900 14533 3902C 14496 3905 14495 3906 14496 3945C 14497 3967 14507 4066 14518 4166C 14540 4348 14539 4380 14509 4437C 14486 4480 14370 4519 14322 4500z" stroke="none" fill="#000000" fill-rule="nonzero" />
        <path d="M13621 4182C 13563 4153 13551 4127 13540 4000C 13535 3937 13530 3832 13530 3768C 13530 3612 13517 3554 13478 3530C 13461 3520 13432 3509 13414 3505C 13367 3497 13354 3470 13381 3436C 13396 3417 13411 3410 13436 3410C 13478 3410 13525 3387 13540 3360C 13546 3350 13565 3261 13584 3163C 13641 2867 13690 2656 13709 2630C 13723 2610 13737 2604 13776 2602C 13849 2598 13865 2614 13863 2687C 13862 2719 13834 2880 13801 3046C 13767 3212 13740 3354 13740 3363C 13740 3372 13750 3391 13763 3405C 13782 3427 13803 3435 13905 3453C 13971 3465 14035 3483 14048 3492L14048 3492L14071 3508L14040 3544C 13997 3592 13950 3604 13833 3595L13833 3595L13741 3588L13734 3615C 13730 3630 13730 3705 13732 3781C 13738 3952 13747 3970 13819 3970C 13887 3970 13915 3994 13915 4052C 13915 4110 13891 4144 13830 4175C 13769 4206 13674 4209 13621 4182z" stroke="none" fill="#000000" fill-rule="nonzero" />
        <path d="M17464 4013C 17452 4011 17434 4000 17424 3988C 17406 3969 17405 3942 17402 3626C 17400 3439 17402 3270 17405 3252C 17412 3213 17475 3144 17513 3135C 17546 3126 17600 3135 17624 3153C 17635 3161 17648 3198 17660 3255C 17682 3365 17709 3438 17756 3516C 17849 3671 17917 3732 18075 3805C 18223 3873 18225 3874 18225 3895C 18225 3914 18218 3915 18080 3914C 17911 3914 17853 3900 17770 3843C 17723 3811 17709 3792 17671 3717C 17647 3669 17625 3631 17624 3633C 17622 3635 17625 3674 17630 3721C 17646 3858 17645 3937 17625 3966C 17597 4009 17535 4027 17464 4013z" stroke="none" fill="#000000" fill-rule="nonzero" />
        <path d="M16613 3945C 16528 3926 16512 3916 16504 3873C 16490 3801 16523 3787 16690 3796C 16819 3803 16872 3790 16885 3749C 16896 3716 16875 3706 16769 3691C 16646 3675 16602 3654 16519 3571C 16326 3378 16354 3187 16586 3110C 16663 3084 16765 3079 16823 3099C 16844 3106 16882 3130 16907 3152C 16963 3200 16992 3199 17051 3145C 17094 3106 17111 3102 17134 3126C 17147 3138 17150 3166 17150 3263C 17150 3408 17135 3602 17119 3668C 17082 3816 16975 3914 16812 3949C 16745 3963 16691 3962 16613 3945zM16893 3540C 16940 3503 16954 3399 16920 3342C 16887 3289 16729 3200 16666 3200C 16636 3200 16610 3229 16603 3273C 16591 3351 16690 3498 16783 3541C 16837 3565 16861 3565 16893 3540z" stroke="none" fill="#000000" fill-rule="nonzero" />
        <path d="M16179 3877C 16117 3835 16050 3738 15954 3548C 15903 3445 15851 3354 15839 3346C 15794 3315 15769 3353 15745 3486C 15715 3649 15691 3691 15616 3711C 15525 3736 15472 3692 15385 3522C 15355 3463 15322 3404 15312 3391C 15293 3367 15292 3367 15282 3387C 15265 3418 15230 3551 15230 3584C 15230 3695 15088 3790 15004 3735C 14960 3707 14954 3679 14974 3592C 15052 3254 15104 3154 15235 3089C 15351 3032 15395 3059 15475 3237C 15502 3296 15525 3347 15526 3348C 15527 3350 15566 3314 15612 3268C 15710 3168 15806 3113 15863 3124C 15935 3138 16055 3263 16159 3435C 16212 3522 16291 3716 16297 3772C 16305 3847 16282 3900 16242 3900C 16226 3900 16198 3890 16179 3877z" stroke="none" fill="#000000" fill-rule="nonzero" />
        <path d="M18500 3882C 18470 3872 18418 3849 18384 3832C 18255 3767 18215 3709 18217 3590C 18221 3291 18500 3064 18810 3108C 18908 3122 18964 3145 19009 3191C 19072 3253 19086 3341 19038 3375C 19011 3393 18985 3383 18915 3325C 18826 3253 18786 3236 18705 3236C 18605 3236 18529 3280 18501 3353L18501 3353L18490 3380L18548 3380C 18599 3380 18615 3386 18705 3439C 18820 3506 18877 3557 18919 3632C 18964 3710 18961 3751 18908 3805C 18847 3865 18770 3892 18650 3897C 18577 3899 18542 3896 18500 3882zM18700 3750C 18712 3706 18694 3683 18583 3596C 18485 3518 18474 3512 18455 3524C 18444 3531 18433 3545 18432 3555C 18425 3586 18461 3659 18503 3703C 18556 3757 18604 3781 18654 3778C 18687 3775 18695 3771 18700 3750z" stroke="none" fill="#000000" fill-rule="nonzero" />
        <path d="M12770 3835C 12686 3811 12627 3779 12607 3744C 12584 3702 12560 3575 12560 3492C 12560 3374 12627 3270 12737 3214C 12814 3175 12934 3168 13001 3198C 13095 3239 13212 3375 13251 3486C 13301 3627 13245 3741 13092 3813C 13033 3841 13013 3845 12925 3847C 12859 3849 12806 3845 12770 3835zM12947 3755C 12997 3734 13019 3713 13041 3665C 13065 3613 13065 3549 13041 3502C 13015 3452 12925 3353 12888 3334C 12861 3320 12857 3320 12838 3337C 12812 3360 12800 3391 12790 3464C 12782 3518 12784 3531 12820 3634C 12856 3734 12877 3770 12902 3770C 12907 3770 12927 3763 12947 3755z" stroke="none" fill="#000000" fill-rule="nonzero" />
        <path d="M12030 2450C 11924 2422 11799 2357 11749 2303C 11656 2202 11630 2064 11680 1935C 11700 1882 11726 1852 11894 1680C 12155 1415 12194 1356 12156 1297C 12136 1268 12046 1219 11975 1199C 11901 1178 11706 1181 11656 1203C 11622 1218 11618 1223 11623 1248C 11631 1286 11616 1308 11593 1294C 11546 1266 11525 1158 11554 1101C 11571 1068 11627 1017 11671 994C 11739 959 11944 960 12085 996C 12209 1028 12325 1111 12371 1201C 12432 1322 12376 1449 12144 1705C 12090 1766 12030 1833 12011 1855C 11992 1877 11954 1920 11925 1951C 11852 2029 11840 2050 11840 2091C 11840 2192 12069 2309 12266 2310C 12341 2310 12352 2316 12380 2368C 12399 2406 12385 2436 12340 2454C 12283 2477 12127 2475 12030 2450z" stroke="none" fill="#000000" fill-rule="nonzero" />
        <path d="M14996 2449L14970 2425L14958 2182C 14950 2023 14942 1933 14934 1922C 14926 1910 14906 1905 14869 1904C 14807 1903 14786 1883 14796 1835C 14805 1792 14828 1771 14870 1764C 14937 1753 14934 1764 14940 1493C 14945 1254 14946 1243 14970 1196C 15043 1053 15237 988 15383 1059C 15435 1084 15447 1108 15430 1150C 15413 1191 15395 1194 15308 1169C 15215 1142 15188 1149 15163 1208C 15144 1252 15134 1459 15145 1574C 15155 1689 15164 1697 15335 1731C 15411 1747 15476 1762 15479 1766C 15490 1777 15485 1869 15473 1881C 15463 1891 15437 1890 15347 1875C 15221 1855 15180 1859 15180 1891C 15180 1903 15189 1991 15201 2088C 15225 2286 15223 2358 15193 2398C 15170 2431 15120 2457 15064 2466C 15030 2471 15019 2468 14996 2449z" stroke="none" fill="#000000" fill-rule="nonzero" />
        <path d="M13465 2418C 13432 2399 13429 2388 13436 2303C 13439 2257 13445 1969 13449 1662L13449 1662L13455 1103L13484 1061C 13527 1000 13552 990 13670 990C 13765 990 13772 991 13797 1016C 13820 1039 13822 1047 13817 1101C 13812 1161 13784 1231 13763 1238C 13750 1242 13720 1214 13679 1161C 13662 1137 13649 1129 13640 1135C 13625 1145 13630 1362 13659 1944C 13669 2142 13675 2313 13672 2324C 13652 2404 13535 2458 13465 2418z" stroke="none" fill="#000000" fill-rule="nonzero" />
        <path d="M15587 2063C 15561 2038 15594 2007 15717 1940L15717 1940L15758 1917L15794 1939C 15858 1979 15832 2030 15734 2055C 15670 2071 15598 2075 15587 2063z" stroke="none" fill="#000000" fill-rule="nonzero" />
        <path d="M18205 2039C 18081 2014 18045 1992 18014 1926C 17968 1826 17984 1763 18107 1574C 18222 1397 18230 1381 18230 1323C 18230 1264 18200 1209 18146 1166C 18109 1136 18105 1135 18014 1137C 17962 1138 17920 1136 17920 1133C 17920 1130 17930 1110 17942 1089C 17972 1034 18043 1000 18125 1000C 18247 1000 18331 1051 18391 1162C 18422 1219 18425 1233 18425 1305C 18425 1400 18420 1410 18310 1555C 18216 1679 18190 1727 18190 1776C 18190 1866 18257 1910 18396 1910C 18463 1910 18496 1915 18528 1930L18528 1930L18571 1950L18553 1981C 18510 2054 18383 2076 18205 2039z" stroke="none" fill="#000000" fill-rule="nonzero" />
        <path d="M17032 1872C 17008 1848 17009 1853 16969 1565C 16932 1288 16922 1143 16940 1100C 16954 1066 16986 1045 17042 1035C 17116 1021 17118 1027 17165 1290C 17179 1370 17195 1449 17200 1465C 17214 1506 17277 1545 17361 1564C 17452 1585 17474 1584 17504 1558C 17527 1538 17531 1523 17540 1440C 17545 1388 17550 1310 17550 1267C 17550 1197 17553 1187 17576 1163C 17598 1141 17608 1138 17647 1143C 17707 1150 17737 1180 17750 1249C 17780 1407 17738 1588 17650 1684C 17589 1750 17543 1764 17417 1756C 17361 1753 17298 1747 17278 1744L17278 1744L17241 1738L17243 1779C 17244 1813 17239 1826 17212 1852C 17185 1880 17172 1885 17116 1888C 17062 1892 17049 1889 17032 1872z" stroke="none" fill="#000000" fill-rule="nonzero" />
        <path d="M13985 1871C 13931 1849 13910 1774 13910 1610C 13910 1346 14042 1170 14240 1170C 14296 1170 14343 1188 14411 1233L14411 1233L14438 1251L14461 1186C 14474 1150 14492 1110 14502 1098C 14518 1076 14521 1076 14546 1090C 14591 1115 14610 1190 14620 1380C 14625 1471 14629 1595 14630 1657C 14630 1786 14623 1799 14557 1801C 14446 1804 14436 1798 14426 1722C 14414 1637 14398 1576 14370 1515C 14337 1443 14269 1350 14235 1333C 14214 1321 14209 1322 14192 1341C 14146 1389 14125 1573 14151 1701C 14173 1816 14162 1847 14091 1868C 14047 1882 14014 1882 13985 1871z" stroke="none" fill="#000000" fill-rule="nonzero" />
        <path d="M12848 1808C 12715 1795 12629 1753 12600 1687C 12555 1583 12549 1400 12589 1322C 12665 1174 12863 1098 13005 1164C 13085 1200 13178 1297 13225 1394C 13290 1525 13283 1618 13202 1699C 13114 1787 12997 1823 12848 1808zM12947 1719C 13010 1695 13060 1619 13060 1548C 13059 1486 13032 1434 12957 1357C 12902 1300 12886 1289 12864 1292C 12827 1296 12801 1342 12790 1421C 12782 1478 12784 1490 12822 1599C 12844 1663 12868 1718 12874 1722C 12890 1733 12914 1732 12947 1719z" stroke="none" fill="#000000" fill-rule="nonzero" />
        <path d="M16355 1809C 16281 1802 16196 1777 16152 1750C 16112 1726 16095 1687 16074 1577C 16044 1421 16071 1319 16167 1229C 16232 1168 16294 1145 16395 1145C 16498 1145 16533 1162 16626 1255C 16789 1419 16816 1598 16694 1710C 16609 1788 16491 1823 16355 1809zM16458 1716C 16489 1700 16532 1655 16549 1623C 16564 1593 16563 1506 16546 1467C 16539 1449 16502 1402 16464 1363C 16361 1254 16321 1265 16294 1407C 16282 1471 16283 1474 16321 1587C 16342 1650 16365 1708 16371 1716C 16386 1734 16424 1734 16458 1716z" stroke="none" fill="#000000" fill-rule="nonzero" />
        <path d="M15684 1706C 15669 1695 15661 1676 15658 1648C 15652 1590 15706 1143 15724 1104C 15752 1042 15860 1019 15905 1065C 15935 1094 15935 1083 15910 1378C 15890 1627 15883 1652 15828 1693C 15793 1719 15712 1727 15684 1706z" stroke="none" fill="#000000" fill-rule="nonzero" />
	</g>
</g>
</svg>