<?xml version="1.0" encoding="UTF-8"?>
<!DOCTYPE svg PUBLIC "-//W3C//DTD SVG 1.1//EN" "http://www.w3.org/Graphics/SVG/1.1/DTD/svg11.dtd">
<svg xmlns="http://www.w3.org/2000/svg" version="1.1" width="800px" height="909px" style="shape-rendering:geometricPrecision; text-rendering:geometricPrecision; image-rendering:optimizeQuality; fill-rule:evenodd; clip-rule:evenodd" xmlns:xlink="http://www.w3.org/1999/xlink">
<g><path style="opacity:0.994" fill="#6f05ff" d="M 106.5,-0.5 C 301.833,-0.5 497.167,-0.5 692.5,-0.5C 723.293,6.12547 742.46,24.7921 750,55.5C 751.321,180.475 751.987,305.475 752,430.5C 753.163,435.828 755.163,440.828 758,445.5C 772.488,462.802 786.321,480.468 799.5,498.5C 799.5,510.5 799.5,522.5 799.5,534.5C 792.997,557.164 777.997,569.997 754.5,573C 517.833,573.667 281.167,573.667 44.5,573C 20.8208,570.814 5.8208,558.314 -0.5,535.5C -0.5,523.5 -0.5,511.5 -0.5,499.5C 13.0071,480.472 27.1738,461.805 42,443.5C 44.4548,439.469 46.1214,435.136 47,430.5C 47.0127,305.475 47.6794,180.475 49,55.5C 56.5665,24.765 75.7332,6.09836 106.5,-0.5 Z M 118.5,70.5 C 305.833,70.5 493.167,70.5 680.5,70.5C 680.5,189.833 680.5,309.167 680.5,428.5C 493.167,428.5 305.833,428.5 118.5,428.5C 118.5,309.167 118.5,189.833 118.5,70.5 Z M 324.5,499.5 C 374.833,499.5 425.167,499.5 475.5,499.5C 476.114,512.028 470.781,520.862 459.5,526C 439.729,527.149 419.896,527.649 400,527.5C 381.167,527.333 362.333,527.167 343.5,527C 330.147,522.823 323.814,513.656 324.5,499.5 Z"/></g>
<g><path style="opacity:0.981" fill="#6f05ff" d="M 438.5,145.5 C 449.827,150.331 460.827,155.998 471.5,162.5C 472.583,163.365 472.749,164.365 472,165.5C 434.833,230.5 397.667,295.5 360.5,360.5C 359.277,361.614 357.944,361.781 356.5,361C 346.833,355.5 337.167,350 327.5,344.5C 326.417,343.635 326.251,342.635 327,341.5C 364.443,276.275 401.61,210.941 438.5,145.5 Z"/></g>
<g><path style="opacity:0.99" fill="#6f05ff" d="M 278.5,160.5 C 287.812,169.146 296.812,178.146 305.5,187.5C 283.833,209.5 262.167,231.5 240.5,253.5C 262.167,275.5 283.833,297.5 305.5,319.5C 296.833,328.833 287.833,337.833 278.5,346.5C 247.138,316.138 216.471,285.138 186.5,253.5C 217.188,222.479 247.854,191.479 278.5,160.5 Z"/></g>
<g><path style="opacity:0.979" fill="#6f05ff" d="M 519.5,160.5 C 520.239,160.369 520.906,160.536 521.5,161C 551.652,191.986 581.986,222.819 612.5,253.5C 581.847,284.653 551.014,315.653 520,346.5C 510.986,337.652 502.152,328.652 493.5,319.5C 515.167,297.5 536.833,275.5 558.5,253.5C 536.833,231.5 515.167,209.5 493.5,187.5C 502.188,178.479 510.855,169.479 519.5,160.5 Z"/></g>
<g><path style="opacity:0.9" fill="#6301fb" d="M 62.5,592.5 C 287.167,592.333 511.834,592.5 736.5,593C 739.826,592.834 741.826,594.334 742.5,597.5C 742.41,599.425 741.41,600.592 739.5,601C 512.833,601.667 286.167,601.667 59.5,601C 56.8003,600.051 55.967,598.217 57,595.5C 58.7189,594.131 60.5522,593.131 62.5,592.5 Z"/></g>
<g><path style="opacity:0.981" fill="#6301fc" d="M 79.5,625.5 C 92.2278,625.08 104.894,625.58 117.5,627C 125.245,629.744 130.745,634.911 134,642.5C 137.326,634.507 143.159,629.341 151.5,627C 164.11,625.414 176.776,625.08 189.5,626C 199.742,627.913 206.575,633.746 210,643.5C 213.442,633.727 220.275,627.894 230.5,626C 242.167,625.333 253.833,625.333 265.5,626C 275.725,627.894 282.558,633.727 286,643.5C 289.45,633.718 296.283,627.884 306.5,626C 319.224,625.08 331.89,625.414 344.5,627C 352.841,629.341 358.674,634.507 362,642.5C 365.87,633.295 372.703,627.795 382.5,626C 395.224,625.08 407.89,625.414 420.5,627C 428.245,629.744 433.745,634.911 437,642.5C 440.464,634.681 446.297,629.514 454.5,627C 467.11,625.414 479.776,625.08 492.5,626C 502.717,627.884 509.55,633.718 513,643.5C 516.442,633.727 523.275,627.894 533.5,626C 545.167,625.333 556.833,625.333 568.5,626C 578.725,627.894 585.558,633.727 589,643.5C 592.425,633.746 599.258,627.913 609.5,626C 622.224,625.08 634.89,625.414 647.5,627C 655.841,629.341 661.674,634.507 665,642.5C 668.255,634.911 673.755,629.744 681.5,627C 694.11,625.414 706.776,625.08 719.5,626C 729.321,627.824 736.154,633.324 740,642.5C 741.592,659.121 741.925,675.788 741,692.5C 738.948,703.552 732.448,710.386 721.5,713C 708.833,713.667 696.167,713.667 683.5,713C 674.312,710.832 668.145,705.332 665,696.5C 661.833,703.667 656.667,708.833 649.5,712C 635.556,713.595 621.556,713.928 607.5,713C 598.139,710.426 591.973,704.593 589,695.5C 585.656,704.843 579.156,710.677 569.5,713C 555.777,713.926 542.111,713.593 528.5,712C 520.911,708.745 515.744,703.245 513,695.5C 510.408,705.056 504.241,710.89 494.5,713C 481.833,713.667 469.167,713.667 456.5,713C 447.255,710.756 440.755,705.256 437,696.5C 433.993,705.505 427.827,711.005 418.5,713C 405.833,713.667 393.167,713.667 380.5,713C 371.173,711.005 365.007,705.505 362,696.5C 358.245,705.256 351.745,710.756 342.5,713C 329.833,713.667 317.167,713.667 304.5,713C 294.759,710.89 288.592,705.056 286,695.5C 282.656,704.843 276.156,710.677 266.5,713C 252.777,713.926 239.111,713.593 225.5,712C 217.911,708.745 212.744,703.245 210,695.5C 207.027,704.593 200.861,710.426 191.5,713C 177.444,713.928 163.444,713.595 149.5,712C 142.333,708.833 137.167,703.667 134,696.5C 130.993,705.505 124.827,711.005 115.5,713C 102.833,713.667 90.1667,713.667 77.5,713C 68.1735,711.005 62.0068,705.505 59,696.5C 57.3938,680.22 57.0605,663.887 58,647.5C 60.6684,635.666 67.835,628.333 79.5,625.5 Z M 86.5,632.5 C 96.1667,632.5 105.833,632.5 115.5,632.5C 115.5,634.5 115.5,636.5 115.5,638.5C 106.155,637.232 96.8219,637.232 87.5,638.5C 86.1667,651.5 86.1667,664.5 87.5,677.5C 95.8333,678.833 104.167,678.833 112.5,677.5C 113.314,672.881 113.647,668.214 113.5,663.5C 109.5,663.5 105.5,663.5 101.5,663.5C 101.5,661.5 101.5,659.5 101.5,657.5C 107.5,657.5 113.5,657.5 119.5,657.5C 119.747,664.888 119.247,672.221 118,679.5C 116.833,680.667 115.667,681.833 114.5,683C 104.833,685 95.1667,685 85.5,683C 84.3333,681.833 83.1667,680.667 82,679.5C 80,665.5 80,651.5 82,637.5C 83.7073,635.963 85.2073,634.296 86.5,632.5 Z M 157.5,633.5 C 166.657,632.342 175.991,632.176 185.5,633C 186.667,634.167 187.833,635.333 189,636.5C 189.5,652.163 189.667,667.83 189.5,683.5C 179.131,684.766 168.798,684.599 158.5,683C 153.909,678.084 152.409,672.251 154,665.5C 154.066,662.724 155.232,660.558 157.5,659C 166.392,657.557 175.392,657.057 184.5,657.5C 184.705,651.122 184.372,644.789 183.5,638.5C 175.178,637.244 166.845,637.244 158.5,638.5C 158.784,636.585 158.451,634.919 157.5,633.5 Z M 239.5,632.5 C 241.5,632.5 243.5,632.5 245.5,632.5C 245.5,647.833 245.5,663.167 245.5,678.5C 251.833,678.5 258.167,678.5 264.5,678.5C 264.5,680.5 264.5,682.5 264.5,684.5C 256.167,684.5 247.833,684.5 239.5,684.5C 239.5,667.167 239.5,649.833 239.5,632.5 Z M 309.5,632.5 C 318.506,632.334 327.506,632.5 336.5,633C 337.667,634.167 338.833,635.333 340,636.5C 340.5,652.163 340.667,667.83 340.5,683.5C 330.132,684.825 319.799,684.659 309.5,683C 307.951,681.786 306.785,680.286 306,678.5C 305.333,673.167 305.333,667.833 306,662.5C 307.5,661 309,659.5 310.5,658C 318.827,657.5 327.16,657.334 335.5,657.5C 335.81,651.242 335.476,645.076 334.5,639C 326.551,637.202 318.551,637.035 310.5,638.5C 310.167,636.5 309.833,634.5 309.5,632.5 Z M 386.5,632.5 C 396.19,632.168 405.856,632.502 415.5,633.5C 414.691,635.071 414.357,636.738 414.5,638.5C 405.822,637.239 397.155,637.239 388.5,638.5C 387.167,651.5 387.167,664.5 388.5,677.5C 397.16,678.799 405.826,678.799 414.5,677.5C 414.357,679.262 414.691,680.929 415.5,682.5C 405.883,684.955 396.217,685.121 386.5,683C 385.333,681.833 384.167,680.667 383,679.5C 382.333,665.167 382.333,650.833 383,636.5C 384.376,635.295 385.542,633.962 386.5,632.5 Z M 460.5,632.5 C 472.5,632.5 484.5,632.5 496.5,632.5C 496.5,634.167 496.5,635.833 496.5,637.5C 491.5,637.5 486.5,637.5 481.5,637.5C 481.5,653.167 481.5,668.833 481.5,684.5C 479.5,684.5 477.5,684.5 475.5,684.5C 475.5,668.833 475.5,653.167 475.5,637.5C 470.5,637.5 465.5,637.5 460.5,637.5C 460.5,635.833 460.5,634.167 460.5,632.5 Z M 537.5,632.5 C 546.173,632.334 554.84,632.5 563.5,633C 565,634.5 566.5,636 568,637.5C 568.5,644.158 568.666,650.825 568.5,657.5C 558.5,657.5 548.5,657.5 538.5,657.5C 538.303,663.545 538.637,669.545 539.5,675.5C 547.501,676.759 555.501,676.759 563.5,675.5C 565.975,676.677 566.975,678.677 566.5,681.5C 556.807,682.998 547.141,682.832 537.5,681C 536.333,679.833 535.167,678.667 534,677.5C 533.333,663.833 533.333,650.167 534,636.5C 535.376,635.295 536.542,633.962 537.5,632.5 Z M 614.5,632.5 C 623.833,632.5 633.167,632.5 642.5,632.5C 643.073,635.617 641.906,637.617 639,638.5C 631.164,637.226 623.33,637.226 615.5,638.5C 615.5,651.5 615.5,664.5 615.5,677.5C 624.16,678.799 632.826,678.799 641.5,677.5C 641.833,679.5 642.167,681.5 642.5,683.5C 633.138,684.998 623.805,684.832 614.5,683C 613.132,681.66 611.799,680.326 610.5,679C 609.36,665.533 609.193,652.033 610,638.5C 611.332,636.34 612.832,634.34 614.5,632.5 Z M 686.5,632.5 C 688.167,632.5 689.833,632.5 691.5,632.5C 691.5,639.833 691.5,647.167 691.5,654.5C 700.833,654.5 710.167,654.5 719.5,654.5C 719.5,647.167 719.5,639.833 719.5,632.5C 721.5,632.5 723.5,632.5 725.5,632.5C 725.5,649.833 725.5,667.167 725.5,684.5C 723.5,684.5 721.5,684.5 719.5,684.5C 719.5,676.5 719.5,668.5 719.5,660.5C 710.167,660.5 700.833,660.5 691.5,660.5C 691.5,668.5 691.5,676.5 691.5,684.5C 689.833,684.5 688.167,684.5 686.5,684.5C 686.5,667.167 686.5,649.833 686.5,632.5 Z"/></g>
<g><path style="opacity:0.916" fill="#6401fc" d="M 542.5,637.5 C 549.202,637.336 555.869,637.669 562.5,638.5C 562.5,642.833 562.5,647.167 562.5,651.5C 554.5,651.5 546.5,651.5 538.5,651.5C 538.372,647.119 538.705,642.785 539.5,638.5C 540.791,638.737 541.791,638.404 542.5,637.5 Z"/></g>
<g><path style="opacity:0.929" fill="#6301fb" d="M 160.5,663.5 C 168.5,663.5 176.5,663.5 184.5,663.5C 184.5,668.167 184.5,672.833 184.5,677.5C 176.999,678.778 169.499,678.778 162,677.5C 161.055,677.095 160.388,676.428 160,675.5C 159.238,671.413 159.404,667.413 160.5,663.5 Z"/></g>
<g><path style="opacity:0.947" fill="#6401fb" d="M 311.5,663.5 C 319.5,663.5 327.5,663.5 335.5,663.5C 335.5,668.167 335.5,672.833 335.5,677.5C 327.5,678.833 319.5,678.833 311.5,677.5C 311.5,672.833 311.5,668.167 311.5,663.5 Z"/></g>
<g><path style="opacity:0.983" fill="#6301fc" d="M 84.5,720.5 C 92.5069,720.334 100.507,720.5 108.5,721C 120.872,721.396 129.372,727.23 134,738.5C 137.655,730.178 143.822,724.678 152.5,722C 165.5,720 178.5,720 191.5,722C 201.241,724.11 207.408,729.944 210,739.5C 214.273,727.605 222.773,721.438 235.5,721C 247.291,719.938 258.958,720.605 270.5,723C 278.089,726.255 283.256,731.755 286,739.5C 290.205,727.653 298.705,721.487 311.5,721C 323.291,719.938 334.958,720.605 346.5,723C 353.667,726.167 358.833,731.333 362,738.5C 366.628,727.23 375.128,721.396 387.5,721C 400.055,719.702 412.388,720.702 424.5,724C 430.82,726.986 434.987,731.819 437,738.5C 442.147,727.839 450.647,722.005 462.5,721C 474.291,719.938 485.958,720.605 497.5,723C 505.333,725.5 510.5,730.667 513,738.5C 517.808,727.342 526.308,721.508 538.5,721C 549.206,720.188 559.873,720.522 570.5,722C 579.598,724.766 585.765,730.599 589,739.5C 593.205,727.653 601.705,721.487 614.5,721C 626.291,719.938 637.958,720.605 649.5,723C 656.333,725.833 661.167,730.667 664,737.5C 665.61,754.78 665.943,772.114 665,789.5C 661.983,800.447 654.816,806.947 643.5,809C 631.109,809.917 618.776,809.584 606.5,808C 597.737,805.57 591.904,800.07 589,791.5C 585.242,801.469 578.075,807.302 567.5,809C 555.109,809.917 542.776,809.584 530.5,808C 521.763,805.596 515.929,800.096 513,791.5C 509.451,801.71 502.284,807.544 491.5,809C 479.109,809.917 466.776,809.584 454.5,808C 446.298,805.573 440.631,800.406 437.5,792.5C 433.274,801.563 426.274,807.063 416.5,809C 403.776,809.92 391.11,809.586 378.5,808C 370.782,805.116 365.115,799.95 361.5,792.5C 358.369,800.406 352.702,805.573 344.5,808C 332.224,809.584 319.891,809.917 307.5,809C 296.716,807.544 289.549,801.71 286,791.5C 282.242,801.469 275.075,807.302 264.5,809C 252.109,809.917 239.776,809.584 227.5,808C 218.763,805.596 212.929,800.096 210,791.5C 206.451,801.71 199.284,807.544 188.5,809C 176.109,809.917 163.776,809.584 151.5,808C 143.298,805.573 137.631,800.406 134.5,792.5C 130.885,799.95 125.218,805.116 117.5,808C 104.89,809.586 92.2237,809.92 79.5,809C 69.7034,807.205 62.8701,801.705 59,792.5C 57.4085,775.879 57.0751,759.212 58,742.5C 61.4774,728.682 70.3107,721.349 84.5,720.5 Z M 90.5,727.5 C 98.8671,727.295 107.2,727.629 115.5,728.5C 115.868,731.056 115.034,733.056 113,734.5C 104.821,733.181 96.6541,733.181 88.5,734.5C 87.5059,739.456 87.1725,744.456 87.5,749.5C 95.8001,750.241 104.133,750.741 112.5,751C 114,752.5 115.5,754 117,755.5C 117.667,761.833 117.667,768.167 117,774.5C 115.457,776.378 113.624,777.878 111.5,779C 102.452,779.805 93.4518,779.639 84.5,778.5C 84.1667,778.167 83.8333,777.833 83.5,777.5C 84.154,775.885 84.654,774.218 85,772.5C 93.7489,773.484 102.582,773.817 111.5,773.5C 112.833,767.833 112.833,762.167 111.5,756.5C 103.114,756.787 94.7805,756.287 86.5,755C 85.3147,753.647 83.9814,752.48 82.5,751.5C 81.3764,745.552 81.2097,739.552 82,733.5C 83.6689,729.639 86.5022,727.639 90.5,727.5 Z M 164.5,727.5 C 173.235,727.124 181.902,727.624 190.5,729C 192.049,730.214 193.215,731.714 194,733.5C 194.667,747.167 194.667,760.833 194,774.5C 192.457,776.378 190.624,777.878 188.5,779C 179.5,779.667 170.5,779.667 161.5,779C 159.714,778.215 158.214,777.049 157,775.5C 155.409,762.223 155.076,748.89 156,735.5C 157.453,731.209 160.287,728.542 164.5,727.5 Z M 235.5,727.5 C 245.833,727.5 256.167,727.5 266.5,727.5C 266.5,729.5 266.5,731.5 266.5,733.5C 258.167,733.5 249.833,733.5 241.5,733.5C 241.5,738.833 241.5,744.167 241.5,749.5C 248.833,749.5 256.167,749.5 263.5,749.5C 263.5,751.5 263.5,753.5 263.5,755.5C 256.167,755.5 248.833,755.5 241.5,755.5C 241.5,763.5 241.5,771.5 241.5,779.5C 239.5,779.5 237.5,779.5 235.5,779.5C 235.5,762.167 235.5,744.833 235.5,727.5 Z M 309.5,727.5 C 321.5,727.5 333.5,727.5 345.5,727.5C 345.5,729.5 345.5,731.5 345.5,733.5C 340.5,733.5 335.5,733.5 330.5,733.5C 330.5,748.833 330.5,764.167 330.5,779.5C 328.5,779.5 326.5,779.5 324.5,779.5C 324.5,764.167 324.5,748.833 324.5,733.5C 319.5,733.5 314.5,733.5 309.5,733.5C 309.5,731.5 309.5,729.5 309.5,727.5 Z M 381.5,727.5 C 384.077,742.587 385.743,757.92 386.5,773.5C 388.167,773.5 389.833,773.5 391.5,773.5C 393.575,758.792 395.908,744.125 398.5,729.5C 400.467,729.261 402.301,729.594 404,730.5C 406.502,744.846 409.002,759.18 411.5,773.5C 412.833,773.5 414.167,773.5 415.5,773.5C 416.806,758.132 418.473,742.798 420.5,727.5C 422.535,728.041 424.535,728.708 426.5,729.5C 424.471,744.788 422.637,760.121 421,775.5C 416,780.833 411,780.833 406,775.5C 404.701,765.737 403.035,756.07 401,746.5C 399.519,756.201 397.852,765.868 396,775.5C 389.584,781.536 384.584,780.536 381,772.5C 379.243,757.852 377.743,743.186 376.5,728.5C 378.415,728.784 380.081,728.451 381.5,727.5 Z M 464.5,727.5 C 472.571,727.137 480.571,727.637 488.5,729C 489.667,730.167 490.833,731.333 492,732.5C 492.5,748.163 492.667,763.83 492.5,779.5C 482.904,779.447 473.238,779.28 463.5,779C 459.547,778.047 457.381,775.547 457,771.5C 454.34,757.327 460.174,750.993 474.5,752.5C 478.859,752.649 483.192,752.983 487.5,753.5C 487.916,747.048 487.416,740.715 486,734.5C 478.53,733.18 471.03,733.18 463.5,734.5C 461.988,733.009 460.988,731.176 460.5,729C 462.058,728.79 463.391,728.29 464.5,727.5 Z M 535.5,727.5 C 545.566,727.105 555.566,727.605 565.5,729C 566.304,730.771 567.471,732.271 569,733.5C 569.764,739.04 569.597,744.54 568.5,750C 566.199,752.156 563.533,753.822 560.5,755C 565.155,755.73 568.321,758.23 570,762.5C 570.499,768.157 570.666,773.824 570.5,779.5C 568.5,779.5 566.5,779.5 564.5,779.5C 564.666,773.491 564.499,767.491 564,761.5C 563.5,761 563,760.5 562.5,760C 555.615,758.575 548.615,758.075 541.5,758.5C 541.5,765.5 541.5,772.5 541.5,779.5C 539.5,779.5 537.5,779.5 535.5,779.5C 535.5,762.167 535.5,744.833 535.5,727.5 Z M 617.5,727.5 C 625.238,727.144 632.905,727.644 640.5,729C 642.487,730.319 643.654,732.152 644,734.5C 644.5,740.825 644.666,747.158 644.5,753.5C 634.5,753.5 624.5,753.5 614.5,753.5C 614.303,759.545 614.637,765.545 615.5,771.5C 624.085,771.817 632.585,771.483 641,770.5C 641.813,772.436 642.313,774.436 642.5,776.5C 633.535,777.581 624.535,777.748 615.5,777C 613.376,775.878 611.543,774.378 610,772.5C 608,759.167 608,745.833 610,732.5C 611.913,729.72 614.413,728.053 617.5,727.5 Z"/></g>
<g><path style="opacity:0.977" fill="#6301fb" d="M 163.5,733.5 C 171.752,733.184 179.919,733.518 188,734.5C 188.5,747.496 188.667,760.496 188.5,773.5C 179.808,773.831 171.141,773.498 162.5,772.5C 161.852,766.047 161.519,759.547 161.5,753C 161.54,746.261 162.207,739.761 163.5,733.5 Z"/></g>
<g><path style="opacity:0.965" fill="#6301fc" d="M 541.5,733.5 C 547.842,733.334 554.175,733.5 560.5,734C 563.545,736.101 564.878,739.101 564.5,743C 565.067,747.339 563.4,750.339 559.5,752C 553.509,752.499 547.509,752.666 541.5,752.5C 541.5,746.167 541.5,739.833 541.5,733.5 Z"/></g>
<g><path style="opacity:0.939" fill="#6301fb" d="M 615.5,733.5 C 622.841,733.334 630.174,733.5 637.5,734C 638.467,738.401 638.8,742.901 638.5,747.5C 630.5,747.5 622.5,747.5 614.5,747.5C 614.283,742.77 614.617,738.103 615.5,733.5 Z"/></g>
<g><path style="opacity:0.95" fill="#6301fb" d="M 464.5,758.5 C 471.841,758.334 479.174,758.5 486.5,759C 487.469,763.737 487.803,768.57 487.5,773.5C 479.5,773.5 471.5,773.5 463.5,773.5C 461.856,768.249 462.19,763.249 464.5,758.5 Z"/></g>
<g><path style="opacity:0.976" fill="#6401fc" d="M 79.5,816.5 C 92.2278,816.08 104.894,816.58 117.5,818C 125.245,820.744 130.745,825.911 134,833.5C 137.464,825.681 143.297,820.514 151.5,818C 164.11,816.414 176.776,816.08 189.5,817C 199.742,818.913 206.575,824.746 210,834.5C 213.758,824.531 220.925,818.698 231.5,817C 243.891,816.083 256.224,816.416 268.5,818C 277.237,820.404 283.071,825.904 286,834.5C 289.425,824.746 296.258,818.913 306.5,817C 319.224,816.08 331.89,816.414 344.5,818C 352.703,820.514 358.536,825.681 362,833.5C 365.87,824.295 372.703,818.795 382.5,817C 395.224,816.08 407.89,816.414 420.5,818C 428.218,820.884 433.885,826.05 437.5,833.5C 440.631,825.594 446.298,820.427 454.5,818C 467.11,816.414 479.776,816.08 492.5,817C 502.742,818.913 509.575,824.746 513,834.5C 516.758,824.531 523.925,818.698 534.5,817C 546.891,816.083 559.224,816.416 571.5,818C 580.237,820.404 586.071,825.904 589,834.5C 592.425,824.746 599.258,818.913 609.5,817C 622.224,816.08 634.89,816.414 647.5,818C 655.703,820.514 661.536,825.681 665,833.5C 668.255,825.911 673.755,820.744 681.5,818C 694.11,816.414 706.776,816.08 719.5,817C 729.297,818.795 736.13,824.295 740,833.5C 741.592,850.121 741.925,866.788 741,883.5C 738.948,894.552 732.448,901.386 721.5,904C 706.655,906.477 691.989,905.81 677.5,902C 671.18,899.014 667.013,894.181 665,887.5C 661.833,894.667 656.667,899.833 649.5,903C 635.57,905.875 621.57,906.209 607.5,904C 597.759,901.89 591.592,896.056 589,886.5C 585.765,895.401 579.598,901.234 570.5,904C 556.416,906.242 542.416,905.909 528.5,903C 520.911,899.745 515.744,894.245 513,886.5C 510.408,896.056 504.241,901.89 494.5,904C 480.43,906.209 466.43,905.875 452.5,903C 445.333,899.833 440.167,894.667 437,887.5C 433.993,896.505 427.827,902.005 418.5,904C 405.833,906 393.167,906 380.5,904C 371.173,902.005 365.007,896.505 362,887.5C 356.495,898.992 347.328,904.826 334.5,905C 323.379,905.995 312.379,905.328 301.5,903C 293.234,900.401 288.068,894.901 286,886.5C 281.461,898.696 272.627,904.862 259.5,905C 248.046,906.01 236.713,905.343 225.5,903C 217.911,899.745 212.744,894.245 210,886.5C 207.408,896.056 201.241,901.89 191.5,904C 177.43,906.209 163.43,905.875 149.5,903C 142.333,899.833 137.167,894.667 134,887.5C 129.227,899.242 120.394,905.076 107.5,905C 97.4639,905.756 87.4639,905.423 77.5,904C 66.552,901.386 60.052,894.552 58,883.5C 57.0751,866.788 57.4085,850.121 59,833.5C 63.0376,824.282 69.871,818.615 79.5,816.5 Z M 86.5,823.5 C 95.8393,823.334 105.173,823.5 114.5,824C 115.999,826.827 115.165,828.66 112,829.5C 103.835,828.265 95.6681,828.265 87.5,829.5C 87.5,834.833 87.5,840.167 87.5,845.5C 96.2259,845.161 104.893,845.661 113.5,847C 114.667,848.167 115.833,849.333 117,850.5C 117.667,857.167 117.667,863.833 117,870.5C 114.727,873.804 111.561,875.304 107.5,875C 99.4812,875.61 91.4812,875.443 83.5,874.5C 83.8333,872.5 84.1667,870.5 84.5,868.5C 93.507,869.801 102.507,869.801 111.5,868.5C 111.869,865.681 112.202,862.848 112.5,860C 112.589,857.277 111.923,854.777 110.5,852.5C 103.216,851.7 95.8826,851.2 88.5,851C 86.1523,850.654 84.3189,849.487 83,847.5C 81.424,841.612 81.0906,835.612 82,829.5C 83.332,827.34 84.832,825.34 86.5,823.5 Z M 160.5,823.5 C 170.172,823.334 179.839,823.5 189.5,824C 191,825.5 192.5,827 194,828.5C 194.667,842.167 194.667,855.833 194,869.5C 193.215,871.286 192.049,872.786 190.5,874C 180.5,876 170.5,876 160.5,874C 159.333,872.833 158.167,871.667 157,870.5C 155,856.167 155,841.833 157,827.5C 158.376,826.295 159.542,824.962 160.5,823.5 Z M 239.5,823.5 C 241.5,823.5 243.5,823.5 245.5,823.5C 245.5,838.833 245.5,854.167 245.5,869.5C 251.833,869.5 258.167,869.5 264.5,869.5C 264.5,871.5 264.5,873.5 264.5,875.5C 256.167,875.5 247.833,875.5 239.5,875.5C 239.5,858.167 239.5,840.833 239.5,823.5 Z M 306.5,823.5 C 308.5,823.5 310.5,823.5 312.5,823.5C 312.183,838.215 312.517,852.882 313.5,867.5C 314.025,868.192 314.692,868.692 315.5,869C 323.535,869.736 331.535,869.569 339.5,868.5C 340.451,853.536 340.785,838.536 340.5,823.5C 342.167,823.5 343.833,823.5 345.5,823.5C 345.667,839.17 345.5,854.837 345,870.5C 343.833,871.667 342.667,872.833 341.5,874C 331.5,876 321.5,876 311.5,874C 310.333,872.833 309.167,871.667 308,870.5C 306.563,854.891 306.063,839.224 306.5,823.5 Z M 385.5,823.5 C 397.5,823.5 409.5,823.5 421.5,823.5C 421.5,825.167 421.5,826.833 421.5,828.5C 416.238,828.195 411.072,828.529 406,829.5C 405.5,844.83 405.333,860.163 405.5,875.5C 403.833,875.5 402.167,875.5 400.5,875.5C 400.5,859.833 400.5,844.167 400.5,828.5C 395.5,828.5 390.5,828.5 385.5,828.5C 385.5,826.833 385.5,825.167 385.5,823.5 Z M 460.5,823.5 C 472.5,823.5 484.5,823.5 496.5,823.5C 496.5,825.167 496.5,826.833 496.5,828.5C 491.5,828.5 486.5,828.5 481.5,828.5C 481.5,842.167 481.5,855.833 481.5,869.5C 486.5,869.5 491.5,869.5 496.5,869.5C 496.5,871.5 496.5,873.5 496.5,875.5C 484.5,875.5 472.5,875.5 460.5,875.5C 460.5,873.5 460.5,871.5 460.5,869.5C 465.5,869.5 470.5,869.5 475.5,869.5C 475.5,855.833 475.5,842.167 475.5,828.5C 470.5,828.5 465.5,828.5 460.5,828.5C 460.5,826.833 460.5,825.167 460.5,823.5 Z M 539.5,823.5 C 549.172,823.334 558.839,823.5 568.5,824C 569.667,825.167 570.833,826.333 572,827.5C 573.63,841.072 573.963,854.739 573,868.5C 572.654,870.848 571.487,872.681 569.5,874C 559.494,875.966 549.494,875.966 539.5,874C 538.132,872.66 536.799,871.326 535.5,870C 534.36,856.533 534.193,843.033 535,829.5C 536.332,827.34 537.832,825.34 539.5,823.5 Z M 615.5,823.5 C 624.839,823.334 634.173,823.5 643.5,824C 644.667,825.167 645.833,826.333 647,827.5C 648.422,843.451 648.922,859.451 648.5,875.5C 646.5,875.5 644.5,875.5 642.5,875.5C 642.786,860.131 642.453,844.798 641.5,829.5C 632.84,828.201 624.174,828.201 615.5,829.5C 615.5,844.833 615.5,860.167 615.5,875.5C 613.833,875.5 612.167,875.5 610.5,875.5C 610.5,858.5 610.5,841.5 610.5,824.5C 612.415,824.784 614.081,824.451 615.5,823.5 Z M 692.5,823.5 C 702.083,823.182 711.583,823.515 721,824.5C 721.72,826.112 721.554,827.612 720.5,829C 716.026,829.032 711.526,828.865 707,828.5C 702.764,828.494 698.598,828.994 694.5,830C 693.167,835 693.167,840 694.5,845C 702.884,845.169 711.218,845.836 719.5,847C 720.667,848.167 721.833,849.333 723,850.5C 723.667,857.167 723.667,863.833 723,870.5C 720.727,873.804 717.561,875.304 713.5,875C 705.481,875.61 697.481,875.443 689.5,874.5C 689.833,872.5 690.167,870.5 690.5,868.5C 699.507,869.801 708.507,869.801 717.5,868.5C 719.149,863.003 718.816,857.67 716.5,852.5C 709.216,851.7 701.883,851.2 694.5,851C 692.152,850.654 690.319,849.487 689,847.5C 687.424,841.612 687.091,835.612 688,829.5C 689.332,827.34 690.832,825.34 692.5,823.5 Z"/></g>
<g><path style="opacity:0.958" fill="#6401fb" d="M 166.5,828.5 C 173.862,828.365 181.196,828.698 188.5,829.5C 188.5,842.5 188.5,855.5 188.5,868.5C 180.535,869.569 172.535,869.736 164.5,869C 163.584,868.626 162.75,868.126 162,867.5C 161.5,854.838 161.333,842.171 161.5,829.5C 163.415,829.784 165.081,829.451 166.5,828.5 Z"/></g>
<g><path style="opacity:0.962" fill="#6301fc" d="M 545.5,828.5 C 552.862,828.365 560.196,828.698 567.5,829.5C 567.5,842.5 567.5,855.5 567.5,868.5C 558.5,869.833 549.5,869.833 540.5,868.5C 540.5,855.5 540.5,842.5 540.5,829.5C 542.415,829.784 544.081,829.451 545.5,828.5 Z"/></g>
</svg>
