<?xml version="1.0" encoding="UTF-8"?>
<!DOCTYPE svg PUBLIC "-//W3C//DTD SVG 1.1//EN" "http://www.w3.org/Graphics/SVG/1.1/DTD/svg11.dtd">
<svg xmlns="http://www.w3.org/2000/svg" version="1.1" width="830px" height="310px" style="shape-rendering:geometricPrecision; text-rendering:geometricPrecision; image-rendering:optimizeQuality; fill-rule:evenodd; clip-rule:evenodd" xmlns:xlink="http://www.w3.org/1999/xlink">
<g><path style="opacity:0.972" fill="#fe0505" d="M 53.5,-0.5 C 162.5,-0.5 271.5,-0.5 380.5,-0.5C 397.417,5.97611 406.584,18.3094 408,36.5C 408.333,102.833 408.667,169.167 409,235.5C 415.697,246.221 423.364,256.221 432,265.5C 434.99,274.35 435.323,283.35 433,292.5C 429.981,300.684 424.481,306.351 416.5,309.5C 283.167,309.5 149.833,309.5 16.5,309.5C 7.91616,305.254 2.2495,298.588 -0.5,289.5C -0.5,282.833 -0.5,276.167 -0.5,269.5C 6.07275,260.721 12.9061,252.054 20,243.5C 21.9345,240.629 23.6012,237.629 25,234.5C 25.3333,167.167 25.6667,99.8333 26,32.5C 29.0853,16.276 38.252,5.276 53.5,-0.5 Z M 65.5,38.5 C 166.5,38.5 267.5,38.5 368.5,38.5C 368.5,102.833 368.5,167.167 368.5,231.5C 267.5,231.5 166.5,231.5 65.5,231.5C 65.5,167.167 65.5,102.833 65.5,38.5 Z M 177.5,270.5 C 204.167,270.5 230.833,270.5 257.5,270.5C 257.52,276.631 254.853,281.131 249.5,284C 228.167,284.667 206.833,284.667 185.5,284C 179.114,281.731 176.448,277.231 177.5,270.5 Z"/></g>
<g><path style="opacity:0.794" fill="#fb0202" d="M 453.5,26.5 C 457.251,26.0824 459.418,27.749 460,31.5C 460.667,113.5 460.667,195.5 460,277.5C 457.858,283.543 455.192,283.876 452,278.5C 451.333,195.833 451.333,113.167 452,30.5C 452.791,29.255 453.291,27.9217 453.5,26.5 Z"/></g>
<g><path style="opacity:0.804" fill="#fb0101" d="M 574.5,38.5 C 579.948,37.8858 583.282,40.2191 584.5,45.5C 583.094,61.1612 582.261,76.8279 582,92.5C 586.099,86.7939 588.599,87.4606 589.5,94.5C 589.674,96.6934 589.007,98.5267 587.5,100C 581.11,101.942 576.277,100.109 573,94.5C 572.813,77.3018 572.313,60.1352 571.5,43C 571.957,41.0598 572.957,39.5598 574.5,38.5 Z"/></g>
<g><path style="opacity:0.829" fill="#fb0101" d="M 502.5,40.5 C 508.245,40.2111 513.912,40.7111 519.5,42C 525.399,44.3662 525.733,47.0329 520.5,50C 513.022,50.0569 505.689,51.0569 498.5,53C 495.438,54.0608 492.938,55.8941 491,58.5C 487.297,66.5971 486.631,74.9304 489,83.5C 490.161,85.6648 491.994,86.6648 494.5,86.5C 502.924,84.4553 509.924,80.1219 515.5,73.5C 509.242,73.4156 502.909,73.249 496.5,73C 493.404,70.9713 491.738,68.138 491.5,64.5C 502.156,62.3998 512.822,62.2331 523.5,64C 528.788,67.238 529.954,71.738 527,77.5C 518.237,91.6478 505.737,97.4811 489.5,95C 478.935,89.6668 475.101,81.1668 478,69.5C 479.601,63.3634 481.601,57.3634 484,51.5C 488.746,45.3794 494.913,41.7127 502.5,40.5 Z"/></g>
<g><path style="opacity:0.812" fill="#fb0101" d="M 697.5,40.5 C 710.852,40.8345 724.185,41.5012 737.5,42.5C 738.035,45.2385 737.035,47.0718 734.5,48C 724.848,49.0629 715.181,49.8963 705.5,50.5C 704.725,65.9765 702.892,81.3099 700,96.5C 696.016,99.0452 692.849,98.2119 690.5,94C 693.12,79.9344 694.62,65.7677 695,51.5C 688.747,54.1425 682.247,55.3091 675.5,55C 670.254,50.7591 670.921,47.4258 677.5,45C 684.163,42.8308 690.829,41.3308 697.5,40.5 Z"/></g>
<g><path style="opacity:0.829" fill="#fb0101" d="M 829.5,87.5 C 829.5,92.5 829.5,97.5 829.5,102.5C 825.988,104.743 822.821,104.076 820,100.5C 818.776,95.6141 818.109,90.6141 818,85.5C 817.581,84.3279 816.915,83.3279 816,82.5C 812.503,87.3293 809.67,92.496 807.5,98C 804.15,98.9299 801.317,98.0965 799,95.5C 798.346,81.9502 797.18,68.4502 795.5,55C 795.541,51.7791 795.875,48.6124 796.5,45.5C 800.454,42.5421 803.621,43.2088 806,47.5C 806.505,57.2308 807.505,66.8975 809,76.5C 819.342,73.7529 826.175,77.4195 829.5,87.5 Z"/></g>
<g><path style="opacity:0.81" fill="#fb0101" d="M 542.5,59.5 C 554.593,58.4439 561.76,63.7772 564,75.5C 564.5,82.4921 564.666,89.4921 564.5,96.5C 561.245,96.9864 558.578,95.9864 556.5,93.5C 548.507,99.0041 540.673,98.6707 533,92.5C 530.879,88.0029 531.212,83.6695 534,79.5C 538.45,73.0249 544.617,69.8582 552.5,70C 547.427,68.86 542.26,68.0266 537,67.5C 535.921,62.7559 537.754,60.0892 542.5,59.5 Z M 548.5,78.5 C 550.167,78.5 551.833,78.5 553.5,78.5C 555.434,82.2606 554.767,85.4273 551.5,88C 548.691,89.7411 545.691,90.9078 542.5,91.5C 542.091,85.9883 544.091,81.655 548.5,78.5 Z"/></g>
<g><path style="opacity:0.811" fill="#fb0101" d="M 605.5,59.5 C 616.109,58.8723 622.942,63.539 626,73.5C 627.018,81.1983 627.185,88.865 626.5,96.5C 625.127,96.6567 623.793,96.49 622.5,96C 621.601,94.7638 620.434,93.9304 619,93.5C 610.988,98.9854 603.155,98.652 595.5,92.5C 592.936,88.1173 593.102,83.7839 596,79.5C 600.45,73.0249 606.617,69.8582 614.5,70C 609.627,68.8368 604.627,68.0035 599.5,67.5C 598.369,65.9255 598.202,64.2588 599,62.5C 601.166,61.2685 603.333,60.2685 605.5,59.5 Z M 610.5,78.5 C 615.659,78.1363 617.492,80.4696 616,85.5C 612.875,88.9059 609.208,90.5725 605,90.5C 604.333,88.8333 604.333,87.1667 605,85.5C 606.666,83.0043 608.5,80.671 610.5,78.5 Z"/></g>
<g><path style="opacity:0.812" fill="#fb0101" d="M 736.5,61.5 C 741.183,61.9388 745.516,63.4388 749.5,66C 752.083,69.5504 751.917,73.0504 749,76.5C 744.438,81.3622 738.938,84.5288 732.5,86C 735.869,89.2612 739.869,90.2612 744.5,89C 746.833,87.3333 749.167,85.6667 751.5,84C 754.548,83.3655 756.215,84.6988 756.5,88C 753.619,94.6518 748.453,97.8185 741,97.5C 725.047,95.1994 718.047,86.1994 720,70.5C 724.516,65.4953 730.016,62.4953 736.5,61.5 Z M 737.5,68.5 C 739.225,68.8425 739.725,69.8425 739,71.5C 736.555,72.9771 734.388,74.8104 732.5,77C 731.5,77.6667 730.5,77.6667 729.5,77C 731.021,72.9823 733.687,70.149 737.5,68.5 Z"/></g>
<g><path style="opacity:0.797" fill="#fb0101" d="M 644.5,62.5 C 647.85,62.335 651.183,62.5017 654.5,63C 659.748,64.1529 661.082,66.8195 658.5,71C 648.117,71.0562 643.95,76.2228 646,86.5C 647.438,87.7185 649.105,88.3852 651,88.5C 656.215,86.9302 661.215,84.9302 666,82.5C 667.487,84.272 667.82,86.272 667,88.5C 661.683,95.0883 654.85,97.2549 646.5,95C 634.348,89.1891 631.515,80.3558 638,68.5C 640.063,66.2659 642.229,64.2659 644.5,62.5 Z"/></g>
<g><path style="opacity:0.794" fill="#fb0101" d="M 767.5,62.5 C 772.734,61.8346 777.568,62.8346 782,65.5C 784.134,67.5784 783.968,69.4117 781.5,71C 770.841,70.7872 766.675,75.9538 769,86.5C 770.438,87.7185 772.105,88.3852 774,88.5C 779.013,86.4922 784.013,84.4922 789,82.5C 790.959,86.8046 789.792,90.3046 785.5,93C 778.527,96.2821 771.527,96.2821 764.5,93C 754.505,81.781 755.505,71.6143 767.5,62.5 Z"/></g>
<g><path style="opacity:0.908" fill="#fe0505" d="M 237.5,77.5 C 243.757,79.9617 249.757,82.9617 255.5,86.5C 256.614,87.723 256.781,89.0563 256,90.5C 235.667,125.833 215.333,161.167 195,196.5C 188.751,192.959 182.584,189.293 176.5,185.5C 197.364,149.77 217.697,113.77 237.5,77.5 Z"/></g>
<g><path style="opacity:0.917" fill="#fe0505" d="M 150.5,86.5 C 156.201,90.6896 161.534,95.5229 166.5,101C 154.652,112.681 142.986,124.514 131.5,136.5C 143.167,148.5 154.833,160.5 166.5,172.5C 161.833,177.833 156.833,182.833 151.5,187.5C 134.347,170.847 117.347,154.014 100.5,137C 117.368,120.299 134.035,103.465 150.5,86.5 Z"/></g>
<g><path style="opacity:0.918" fill="#fe0505" d="M 281.5,86.5 C 299.288,102.455 316.288,119.288 332.5,137C 316.333,154.5 299.5,171.333 282,187.5C 277.007,182.673 272.174,177.673 267.5,172.5C 278.986,160.514 290.652,148.681 302.5,137C 290.652,125.319 278.986,113.486 267.5,101.5C 272.188,96.4797 276.855,91.4797 281.5,86.5 Z"/></g>
<g><path style="opacity:0.823" fill="#fb0101" d="M 499.5,121.5 C 503.514,121.334 507.514,121.501 511.5,122C 515.037,123.826 515.371,126.16 512.5,129C 506.168,129.532 500.168,131.199 494.5,134C 491.278,135.99 490.778,138.49 493,141.5C 501.138,149.298 508.138,157.965 514,167.5C 515.279,176.414 511.446,181.914 502.5,184C 496.569,185.471 490.569,185.804 484.5,185C 477.868,182.389 476.035,177.889 479,171.5C 480.011,170.663 481.178,170.33 482.5,170.5C 482.33,171.822 482.663,172.989 483.5,174C 490.608,176.178 497.108,175.012 503,170.5C 503.418,168.212 502.751,166.212 501,164.5C 495.667,159.167 490.333,153.833 485,148.5C 480.587,139.755 482.087,132.255 489.5,126C 492.893,124.38 496.226,122.88 499.5,121.5 Z"/></g>
<g><path style="opacity:0.817" fill="#fb0101" d="M 593.5,121.5 C 597.794,121.198 600.961,122.864 603,126.5C 603.558,132.92 603.058,139.253 601.5,145.5C 605.71,145.958 609.877,146.292 614,146.5C 614.808,148.579 614.641,150.579 613.5,152.5C 609.079,153.276 604.912,154.609 601,156.5C 600.333,162.5 600.333,168.5 601,174.5C 601.689,175.357 602.522,176.023 603.5,176.5C 605.735,175.248 608.069,174.748 610.5,175C 612.602,176.733 612.935,178.733 611.5,181C 602.656,185.052 595.823,182.885 591,174.5C 590.684,167.142 590.184,159.809 589.5,152.5C 585.926,153.092 583.926,151.592 583.5,148C 585.01,145.245 587.343,144.079 590.5,144.5C 590.334,139.489 590.501,134.489 591,129.5C 591.097,126.518 591.93,123.851 593.5,121.5 Z"/></g>
<g><path style="opacity:0.817" fill="#fb0101" d="M 564.5,134.5 C 567.518,134.335 570.518,134.502 573.5,135C 577.292,137.053 578.458,140.219 577,144.5C 575,145.167 573,145.833 571,146.5C 570.501,150.821 570.334,155.154 570.5,159.5C 573.85,159.335 577.183,159.502 580.5,160C 583.951,161.487 584.617,163.487 582.5,166C 579.167,166.667 575.833,167.333 572.5,168C 571.484,168.519 570.818,169.353 570.5,170.5C 572.064,177.82 573.564,185.153 575,192.5C 575.784,195.76 575.617,198.927 574.5,202C 572.231,202.758 570.064,202.591 568,201.5C 564.813,191.716 562.479,181.716 561,171.5C 559.174,169.821 557.008,168.654 554.5,168C 553.978,167.439 553.645,166.772 553.5,166C 554.775,163.929 556.609,162.429 559,161.5C 559.95,154.193 560.617,146.86 561,139.5C 561.257,137.093 562.424,135.427 564.5,134.5 Z"/></g>
<g><path style="opacity:0.807" fill="#fb0101" d="M 724.5,141.5 C 731.55,141.731 734.383,145.397 733,152.5C 739.343,146.682 746.843,144.516 755.5,146C 756.833,147.333 756.833,148.667 755.5,150C 741.91,154.644 734.077,164.144 732,178.5C 727.342,181.564 723.675,180.564 721,175.5C 720.333,165.5 720.333,155.5 721,145.5C 721.69,143.65 722.856,142.316 724.5,141.5 Z"/></g>
<g><path style="opacity:0.815" fill="#fb0101" d="M 688.5,144.5 C 696.012,143.394 702.512,145.394 708,150.5C 709.275,152.717 710.275,155.051 711,157.5C 711.47,162.836 711.97,168.17 712.5,173.5C 712.96,181.587 710.127,183.253 704,178.5C 695.486,184.237 687.486,183.57 680,176.5C 678.02,170.423 679.353,165.09 684,160.5C 688.532,156.769 693.699,154.602 699.5,154C 694.187,152.84 688.854,152.34 683.5,152.5C 682.803,148.222 684.47,145.555 688.5,144.5 Z M 697.5,162.5 C 701.254,163.828 702.421,166.494 701,170.5C 697.901,173.812 694.067,175.479 689.5,175.5C 689.761,169.594 692.428,165.261 697.5,162.5 Z"/></g>
<g><path style="opacity:0.844" fill="#fb0101" d="M 671.5,146.5 C 673.144,146.286 674.644,146.62 676,147.5C 675.856,160.625 670.689,171.459 660.5,180C 658.167,180.667 655.833,180.667 653.5,180C 650.354,177.688 647.354,175.188 644.5,172.5C 638.934,186.397 632.101,187.064 624,174.5C 621.543,168.346 620.209,162.013 620,155.5C 623.957,151.47 627.623,151.803 631,156.5C 632.104,160.184 633.27,163.85 634.5,167.5C 636.792,163.079 639.459,158.912 642.5,155C 646.274,153.817 649.441,154.651 652,157.5C 652.962,162.003 654.295,166.336 656,170.5C 659.255,164.992 662.255,159.325 665,153.5C 666.728,150.67 668.895,148.337 671.5,146.5 Z"/></g>
<g><path style="opacity:0.812" fill="#fb0101" d="M 768.5,146.5 C 774.989,145.554 780.656,147.22 785.5,151.5C 787.394,157.228 785.727,161.728 780.5,165C 776.779,167.527 772.779,169.527 768.5,171C 770.297,173.232 772.63,174.398 775.5,174.5C 779.703,173.732 783.37,171.898 786.5,169C 787.833,168.333 789.167,168.333 790.5,169C 792.176,175.053 789.843,179.053 783.5,181C 764.589,183.407 755.089,175.241 755,156.5C 758.369,151.573 762.869,148.239 768.5,146.5 Z M 771.5,153.5 C 772.5,153.5 773.5,153.5 774.5,153.5C 774.649,154.552 774.483,155.552 774,156.5C 771.356,158.31 768.856,160.31 766.5,162.5C 765.432,160.813 765.599,159.146 767,157.5C 768.397,155.93 769.897,154.596 771.5,153.5 Z"/></g>
<g><path style="opacity:0.803" fill="#fb0101" d="M 531.5,148.5 C 536.901,147.966 541.901,149.133 546.5,152C 552.775,158.247 552.942,164.747 547,171.5C 541.084,178.886 533.917,180.386 525.5,176C 517.882,167.976 517.549,159.642 524.5,151C 527.004,150.302 529.337,149.469 531.5,148.5 Z M 533.5,154.5 C 540.456,155.392 542.289,159.059 539,165.5C 537.316,167.351 535.483,169.018 533.5,170.5C 531.95,168.667 530.95,166.501 530.5,164C 532.002,160.995 533.002,157.829 533.5,154.5 Z"/></g>
<g><path style="opacity:0.818" fill="#fb0101" d="M 503.5,205.5 C 506.568,205.547 509.568,206.047 512.5,207C 514.978,208.938 515.145,211.105 513,213.5C 507.741,214.088 502.575,215.255 497.5,217C 494.821,218.346 492.821,220.346 491.5,223C 498.32,231.155 505.153,239.322 512,247.5C 516.995,257.019 514.495,263.852 504.5,268C 496.781,271.143 489.114,271.143 481.5,268C 477.146,264.21 476.479,259.877 479.5,255C 480.448,254.517 481.448,254.351 482.5,254.5C 482.891,258.921 485.391,260.587 490,259.5C 494.809,259.563 499.142,258.229 503,255.5C 503.52,253.711 503.187,252.044 502,250.5C 496.31,243.812 490.31,237.478 484,231.5C 481.142,224.19 482.309,217.69 487.5,212C 492.566,208.928 497.9,206.762 503.5,205.5 Z"/></g>
<g><path style="opacity:0.821" fill="#fb0101" d="M 621.5,206.5 C 627.905,205.527 631.571,208.193 632.5,214.5C 631.541,220.135 630.874,225.801 630.5,231.5C 633.157,231.17 635.824,230.837 638.5,230.5C 641.183,230.392 642.85,231.559 643.5,234C 643.275,235.621 642.442,236.788 641,237.5C 636.621,237.887 632.621,239.221 629,241.5C 628.347,247.862 628.513,254.195 629.5,260.5C 632.841,259.995 636.174,259.828 639.5,260C 642.167,262 642.167,264 639.5,266C 629.723,269.853 622.889,267.02 619,257.5C 618.5,250.842 618.334,244.175 618.5,237.5C 613.425,237.171 611.758,234.671 613.5,230C 615.134,229.506 616.801,229.34 618.5,229.5C 619.221,222.533 619.721,215.533 620,208.5C 620.717,207.956 621.217,207.289 621.5,206.5 Z"/></g>
<g><path style="opacity:0.807" fill="#fb0101" d="M 558.5,207.5 C 561.747,207.415 564.581,208.415 567,210.5C 567.539,226.701 567.039,242.868 565.5,259C 565.667,259.833 565.833,260.667 566,261.5C 570.099,255.794 572.599,256.461 573.5,263.5C 573.674,265.693 573.007,267.527 571.5,269C 565.013,271.067 560.18,269.234 557,263.5C 556.813,246.302 556.313,229.135 555.5,212C 555.957,210.06 556.957,208.56 558.5,207.5 Z"/></g>
<g><path style="opacity:0.613" fill="#fb0101" d="M 645.5,222.5 C 649.41,222.263 653.077,223.096 656.5,225C 657.11,230.486 654.777,231.819 649.5,229C 646.307,227.974 644.974,225.808 645.5,222.5 Z"/></g>
<g><path style="opacity:0.796" fill="#fb0101" d="M 754.5,223.5 C 758.514,223.334 762.514,223.501 766.5,224C 771.732,226.612 771.732,228.946 766.5,231C 763.5,231.333 760.5,231.667 757.5,232C 755.012,234.627 754.845,237.46 757,240.5C 759.333,243.5 761.667,246.5 764,249.5C 766.524,256.308 765.024,262.141 759.5,267C 753.307,270.65 747.807,269.817 743,264.5C 742.517,263.552 742.351,262.552 742.5,261.5C 750.617,263.516 754.784,260.516 755,252.5C 752.916,248.664 750.583,244.997 748,241.5C 742.991,232.552 745.157,226.552 754.5,223.5 Z"/></g>
<g><path style="opacity:0.824" fill="#fb0101" d="M 708.5,229.5 C 712.93,229.924 715.93,232.257 717.5,236.5C 728.42,233.245 734.92,237.245 737,248.5C 737.667,251.833 737.667,255.167 737,258.5C 734.98,262.764 731.813,264.098 727.5,262.5C 726.971,257.178 726.471,251.844 726,246.5C 725.311,245.643 724.478,244.977 723.5,244.5C 720.152,245.085 717.152,246.418 714.5,248.5C 713.167,254.5 711.833,260.5 710.5,266.5C 707.473,267.857 704.64,267.524 702,265.5C 701.399,254.036 702.399,242.703 705,231.5C 706.302,230.915 707.469,230.249 708.5,229.5 Z"/></g>
<g><path style="opacity:0.815" fill="#fb0101" d="M 579.5,230.5 C 582.862,230.07 585.695,231.07 588,233.5C 588.042,236.968 587.875,240.468 587.5,244C 587.301,255.379 589.801,256.212 595,246.5C 596.313,242.58 597.313,238.58 598,234.5C 601.112,233.427 604.279,233.427 607.5,234.5C 607.966,244.101 607.299,253.601 605.5,263C 604.902,264.301 603.902,265.135 602.5,265.5C 600.367,263.909 598.701,261.909 597.5,259.5C 590.262,263.709 584.095,262.376 579,255.5C 574.211,246.887 574.378,238.553 579.5,230.5 Z"/></g>
<g><path style="opacity:0.819" fill="#fb0101" d="M 529.5,233.5 C 537.737,231.967 544.57,234.301 550,240.5C 551.79,247.328 550.124,253.328 545,258.5C 536.72,265.351 529.054,264.685 522,256.5C 518.836,250.121 519.002,243.788 522.5,237.5C 524.765,235.873 527.099,234.539 529.5,233.5 Z M 534.5,238.5 C 538.585,238.986 540.585,241.32 540.5,245.5C 539.71,250.067 537.21,253.4 533,255.5C 530.061,249.707 530.561,244.04 534.5,238.5 Z"/></g>
<g><path style="opacity:0.81" fill="#fb0101" d="M 674.5,233.5 C 683.962,231.491 691.129,234.491 696,242.5C 696.154,252.351 691.654,259.184 682.5,263C 672.221,263.56 666.221,258.727 664.5,248.5C 664.266,240.883 667.599,235.883 674.5,233.5 Z M 679.5,238.5 C 685.651,240.5 687.151,244.5 684,250.5C 682.333,252.167 680.667,253.833 679,255.5C 677.196,253.723 676.363,251.556 676.5,249C 677,245.335 678,241.835 679.5,238.5 Z"/></g>
<g><path style="opacity:0.8" fill="#fb0101" d="M 649.5,237.5 C 655.054,236.102 658.554,238.102 660,243.5C 660.795,250.832 661.129,258.166 661,265.5C 656.906,268.476 653.573,267.809 651,263.5C 648.978,254.84 648.478,246.173 649.5,237.5 Z"/></g>
</svg>
