<svg xmlns="http://www.w3.org/2000/svg" version="1.1" xmlns:xlink="http://www.w3.org/1999/xlink" xmlns:svgjs="http://svgjs.dev/svgjs" width="1000" height="1000" viewBox="0 0 1000 1000"><rect width="1000" height="1000" fill="#111111"></rect><g transform="matrix(0.7,0,0,0.7,149.57575757575756,369.45982751048604)"><svg viewBox="0 0 396 148" data-background-color="#111111" preserveAspectRatio="xMidYMid meet" height="373" width="1000" xmlns="http://www.w3.org/2000/svg" xmlns:xlink="http://www.w3.org/1999/xlink"><g id="tight-bounds" transform="matrix(1,0,0,1,0.2400000000000091,-0.005570553626697006)"><svg viewBox="0 0 395.52 148.0111411072534" height="148.0111411072534" width="395.52"><g><svg viewBox="0 0 887.7659936238866 332.2189971492873" height="148.0111411072534" width="395.52"><g><rect width="4.582305929669618" height="166.94004606751685" x="475.6681224333018" y="82.63947554088523" fill="#6402fc" opacity="1" stroke-width="0" stroke="transparent" fill-opacity="1" class="rect-i$-0" data-fill-palette-color="primary" rx="1%" id="i$-0" data-palette-color="#6402fc"></rect></g><g transform="matrix(1,0,0,1,492.24599362388665,83.05474928732183)"><svg viewBox="0 0 395.52 166.10949857464365" height="166.10949857464365" width="395.52"><g id="textblocktransform"><svg viewBox="0 0 395.52 166.10949857464365" height="166.10949857464365" width="395.52" id="textblock"><g><svg viewBox="0 0 395.52 166.10949857464365" height="166.10949857464365" width="395.52"><g transform="matrix(1,0,0,1,0,0)"><svg width="395.52" viewBox="-0.09999999999999898 -33.45 260.3500000000001 106.34" height="166.10949857464365" data-palette-color="#6402fc"><svg></svg><svg></svg><svg></svg><g class="undefined-text-0" data-fill-palette-color="primary" id="text-0"><path d="M11.21-28.34l1.58-0.37h6.35l2.52 0.41 0.48-2.61-2.83-0.34h-6.57l-2.49 0.39-1.56 1.56-0.34 2.05v12.26l0.34 2.1 1.61 1.54 2.44 0.29h6.11l2.46-0.29 1.59-1.54 0.34-2.1v-6.42h-7.08v2.61h4.49v3.44c-0.08 0.26-0.137 0.507-0.17 0.74-0.033 0.227-0.09 0.47-0.17 0.73v0l-1.61 0.24h-5.91l-1.49-0.24-0.34-1.56v-11.55zM10.69-33.45h7.52c1.647 0 3.137 0.247 4.47 0.74 1.333 0.487 2.47 1.153 3.41 2 0.933 0.847 1.653 1.833 2.16 2.96 0.5 1.133 0.75 2.333 0.75 3.6v0 14.85c0 1.267-0.25 2.467-0.75 3.6-0.507 1.133-1.227 2.123-2.16 2.97-0.94 0.847-2.077 1.513-3.41 2-1.333 0.487-2.823 0.73-4.47 0.73v0h-7.52c-1.64 0-3.127-0.243-4.46-0.73-1.34-0.487-2.477-1.153-3.41-2-0.933-0.847-1.653-1.837-2.16-2.97-0.507-1.133-0.76-2.333-0.76-3.6v0-14.85c0-1.267 0.253-2.467 0.76-3.6 0.507-1.127 1.227-2.113 2.16-2.96 0.933-0.847 2.07-1.513 3.41-2 1.333-0.493 2.82-0.74 4.46-0.74zM47.71-11.35l2.41 0.27v-5.57-10.69-2.05l-1.66-1.57-2.44-0.29h-5.57l-2.85 0.34 0.61 2.66 2.29-0.46h5.45l1.46 0.32 0.34 1.29v5.69l-1.73-0.29h-5.57l-2.44 0.36-1.56 1.54-0.34 2v2.86l0.34 2.05 1.56 1.54 2.44 0.29h5.35zM47.75-15.21v1.32l-1.9 0.24h-5.25l-1.54-0.24-0.34-1.47v-2.1l0.2-1.39 1.68-0.24h5.3l1.85 0.19zM39.6-33.45h7.52c1.64 0 3.13 0.247 4.47 0.74 1.333 0.487 2.467 1.153 3.4 2 0.94 0.847 1.66 1.833 2.16 2.96 0.507 1.133 0.76 2.333 0.76 3.6v0 14.85c0 1.267-0.253 2.467-0.76 3.6-0.5 1.133-1.22 2.123-2.16 2.97-0.933 0.847-2.067 1.513-3.4 2-1.34 0.487-2.83 0.73-4.47 0.73v0h-7.52c-1.647 0-3.137-0.243-4.47-0.73-1.333-0.487-2.467-1.153-3.4-2-0.94-0.847-1.66-1.837-2.16-2.97-0.507-1.133-0.76-2.333-0.76-3.6v0-14.85c0-1.267 0.253-2.467 0.76-3.6 0.5-1.127 1.22-2.113 2.16-2.96 0.933-0.847 2.067-1.513 3.4-2 1.333-0.493 2.823-0.74 4.47-0.74zM78.86-11.06v-2.59h-7.5v-17.6h-2.59v20.19zM68.51-33.45h7.52c1.64 0 3.127 0.247 4.46 0.74 1.34 0.487 2.477 1.153 3.41 2 0.933 0.847 1.653 1.833 2.16 2.96 0.507 1.133 0.76 2.333 0.76 3.6v0 14.85c0 1.267-0.253 2.467-0.76 3.6-0.507 1.133-1.227 2.123-2.16 2.97-0.933 0.847-2.07 1.513-3.41 2-1.333 0.487-2.82 0.73-4.46 0.73v0h-7.52c-1.647 0-3.137-0.243-4.47-0.73-1.333-0.487-2.47-1.153-3.41-2-0.933-0.847-1.653-1.837-2.16-2.97-0.507-1.133-0.76-2.333-0.76-3.6v0-14.85c0-1.267 0.253-2.467 0.76-3.6 0.507-1.127 1.227-2.113 2.16-2.96 0.94-0.847 2.077-1.513 3.41-2 1.333-0.493 2.823-0.74 4.47-0.74zM105.52-11.35l2.41 0.27v-5.57-10.69-2.05l-1.66-1.57-2.44-0.29h-5.56l-2.86 0.34 0.61 2.66 2.3-0.46h5.44l1.46 0.32 0.35 1.29v5.69l-1.74-0.29h-5.56l-2.44 0.36-1.57 1.54-0.34 2v2.86l0.34 2.05 1.57 1.54 2.44 0.29h5.34zM105.57-15.21v1.32l-1.91 0.24h-5.25l-1.53-0.24-0.35-1.47v-2.1l0.2-1.39 1.68-0.24h5.3l1.86 0.19zM97.41-33.45h7.52c1.647 0 3.137 0.247 4.47 0.74 1.333 0.487 2.47 1.153 3.41 2 0.933 0.847 1.653 1.833 2.16 2.96 0.5 1.133 0.75 2.333 0.75 3.6v0 14.85c0 1.267-0.25 2.467-0.75 3.6-0.507 1.133-1.227 2.123-2.16 2.97-0.94 0.847-2.077 1.513-3.41 2-1.333 0.487-2.823 0.73-4.47 0.73v0h-7.52c-1.64 0-3.13-0.243-4.47-0.73-1.333-0.487-2.467-1.153-3.4-2-0.94-0.847-1.66-1.837-2.16-2.97-0.507-1.133-0.76-2.333-0.76-3.6v0-14.85c0-1.267 0.253-2.467 0.76-3.6 0.5-1.127 1.22-2.113 2.16-2.96 0.933-0.847 2.067-1.513 3.4-2 1.34-0.493 2.83-0.74 4.47-0.74zM136.38-30.91l-2.86-0.34h-5.88l-2.52 0.29-1.54 1.57-0.36 2.05v12.4l0.36 2.05 1.59 1.54 2.47 0.29h5.88l2.86-0.34-0.61-2.64-2.3 0.39h-5.69l-1.61-0.24-0.34-1.47v-11.74l0.24-1.34 1.71-0.27h5.59l2.52 0.41zM126.32-33.45h7.52c1.64 0 3.13 0.247 4.47 0.74 1.333 0.487 2.467 1.153 3.4 2 0.94 0.847 1.66 1.833 2.16 2.96 0.507 1.133 0.76 2.333 0.76 3.6v0 14.85c0 1.267-0.253 2.467-0.76 3.6-0.5 1.133-1.22 2.123-2.16 2.97-0.933 0.847-2.067 1.513-3.4 2-1.34 0.487-2.83 0.73-4.47 0.73v0h-7.52c-1.647 0-3.137-0.243-4.47-0.73-1.333-0.487-2.47-1.153-3.41-2-0.933-0.847-1.653-1.837-2.16-2.97-0.5-1.133-0.75-2.333-0.75-3.6v0-14.85c0-1.267 0.25-2.467 0.75-3.6 0.507-1.127 1.227-2.113 2.16-2.96 0.94-0.847 2.077-1.513 3.41-2 1.333-0.493 2.823-0.74 4.47-0.74zM167.38-28.66v-2.59h-14.11v2.59h5.76v17.6h2.62v-17.6zM155.22-33.45h7.52c1.647 0 3.137 0.247 4.47 0.74 1.333 0.487 2.47 1.153 3.41 2 0.933 0.847 1.653 1.833 2.16 2.96 0.507 1.133 0.76 2.333 0.76 3.6v0 14.85c0 1.267-0.253 2.467-0.76 3.6-0.507 1.133-1.227 2.123-2.16 2.97-0.94 0.847-2.077 1.513-3.41 2-1.333 0.487-2.823 0.73-4.47 0.73v0h-7.52c-1.64 0-3.127-0.243-4.46-0.73-1.34-0.487-2.477-1.153-3.41-2-0.933-0.847-1.653-1.837-2.16-2.97-0.507-1.133-0.76-2.333-0.76-3.6v0-14.85c0-1.267 0.253-2.467 0.76-3.6 0.507-1.127 1.227-2.113 2.16-2.96 0.933-0.847 2.07-1.513 3.41-2 1.333-0.493 2.82-0.74 4.46-0.74zM184.13-33.45h7.52c1.647 0 3.137 0.247 4.47 0.74 1.333 0.487 2.467 1.153 3.4 2 0.94 0.847 1.66 1.833 2.16 2.96 0.507 1.133 0.76 2.333 0.76 3.6v0 14.85c0 1.267-0.253 2.467-0.76 3.6-0.5 1.133-1.22 2.123-2.16 2.97-0.933 0.847-2.067 1.513-3.4 2-1.333 0.487-2.823 0.73-4.47 0.73v0h-7.52c-1.64 0-3.13-0.243-4.47-0.73-1.333-0.487-2.467-1.153-3.4-2-0.94-0.847-1.66-1.837-2.16-2.97-0.507-1.133-0.76-2.333-0.76-3.6v0-14.85c0-1.267 0.253-2.467 0.76-3.6 0.5-1.127 1.22-2.113 2.16-2.96 0.933-0.847 2.067-1.513 3.4-2 1.34-0.493 2.83-0.74 4.47-0.74zM194.85-21.19v-6.15l-0.37-2.05-1.54-1.57-2.46-0.29h-5.3l-2.44 0.29-1.54 1.57-0.37 2.05v11.59l0.37 2.05 1.54 1.54 2.44 0.32h6.15l2.86-0.37-0.61-2.63-2.3 0.39h-5.93l-1.56-0.25-0.34-1.46v-5.03zM192.24-23.75h-8.79v-3.3l0.19-1.39 1.71-0.27h4.98l1.66 0.27 0.25 1.44zM223.1-30.91l-2.86-0.34h-5.88l-2.52 0.29-1.54 1.57-0.36 2.05v12.4l0.36 2.05 1.59 1.54 2.47 0.29h5.88l2.86-0.34-0.61-2.64-2.3 0.39h-5.69l-1.61-0.24-0.34-1.47v-11.74l0.24-1.34 1.71-0.27h5.59l2.52 0.41zM213.04-33.45h7.52c1.64 0 3.127 0.247 4.46 0.74 1.34 0.487 2.477 1.153 3.41 2 0.933 0.847 1.653 1.833 2.16 2.96 0.507 1.133 0.76 2.333 0.76 3.6v0 14.85c0 1.267-0.253 2.467-0.76 3.6-0.507 1.133-1.227 2.123-2.16 2.97-0.933 0.847-2.07 1.513-3.41 2-1.333 0.487-2.82 0.73-4.46 0.73v0h-7.52c-1.647 0-3.137-0.243-4.47-0.73-1.333-0.487-2.47-1.153-3.41-2-0.933-0.847-1.653-1.837-2.16-2.97-0.5-1.133-0.75-2.333-0.75-3.6v0-14.85c0-1.267 0.25-2.467 0.75-3.6 0.507-1.127 1.227-2.113 2.16-2.96 0.94-0.847 2.077-1.513 3.41-2 1.333-0.493 2.823-0.74 4.47-0.74zM254.54-11.06v-20.19h-2.54v8.54h-10.15v-8.54h-2.59v20.19h2.59v-9.08h10.15v9.08zM241.94-33.45h7.52c1.647 0 3.137 0.247 4.47 0.74 1.333 0.487 2.47 1.153 3.41 2 0.933 0.847 1.653 1.833 2.16 2.96 0.5 1.133 0.75 2.333 0.75 3.6v0 14.85c0 1.267-0.25 2.467-0.75 3.6-0.507 1.133-1.227 2.123-2.16 2.97-0.94 0.847-2.077 1.513-3.41 2-1.333 0.487-2.823 0.73-4.47 0.73v0h-7.52c-1.64 0-3.127-0.243-4.46-0.73-1.34-0.487-2.477-1.153-3.41-2-0.933-0.847-1.653-1.837-2.16-2.97-0.507-1.133-0.76-2.333-0.76-3.6v0-14.85c0-1.267 0.253-2.467 0.76-3.6 0.507-1.127 1.227-2.113 2.16-2.96 0.933-0.847 2.07-1.513 3.41-2 1.333-0.493 2.82-0.74 4.46-0.74z" fill="#6402fc" fill-rule="nonzero" stroke="none" stroke-width="1" stroke-linecap="butt" stroke-linejoin="miter" stroke-miterlimit="10" stroke-dasharray="" stroke-dashoffset="0" font-family="none" font-weight="none" font-size="none" text-anchor="none" style="mix-blend-mode: normal" data-fill-palette-color="primary" opacity="1"></path><path transform="translate(0,36.45)" d="M10.69-33.45h7.52c1.647 0 3.137 0.247 4.47 0.74 1.333 0.487 2.47 1.153 3.41 2 0.933 0.847 1.653 1.833 2.16 2.96 0.5 1.133 0.75 2.333 0.75 3.6v0 14.85c0 1.267-0.25 2.467-0.75 3.6-0.507 1.133-1.227 2.123-2.16 2.97-0.94 0.847-2.077 1.513-3.41 2-1.333 0.487-2.823 0.73-4.47 0.73v0h-7.52c-1.64 0-3.127-0.243-4.46-0.73-1.34-0.487-2.477-1.153-3.41-2-0.933-0.847-1.653-1.837-2.16-2.97-0.507-1.133-0.76-2.333-0.76-3.6v0-14.85c0-1.267 0.253-2.467 0.76-3.6 0.507-1.127 1.227-2.113 2.16-2.96 0.933-0.847 2.07-1.513 3.41-2 1.333-0.493 2.82-0.74 4.46-0.74zM22.8-14.99v-3.71l-0.34-2.1-1.56-1.54-2.54-0.27h-5.47l-1.49-0.29c-0.08-0.28-0.137-0.53-0.17-0.75-0.033-0.213-0.09-0.443-0.17-0.69v0-2.56l0.34-1.44 1.61-0.32h6.2l2.3 0.46 0.58-2.66-2.83-0.39h-6.42l-2.44 0.34-1.59 1.56-0.31 2.06v3.34l0.31 2.05 1.59 1.54 2.44 0.32h5.52l1.49 0.24c0.047 0.247 0.103 0.473 0.17 0.68 0.067 0.213 0.123 0.433 0.17 0.66v0 3.2c-0.033 0.213-0.087 0.44-0.16 0.68-0.073 0.247-0.133 0.477-0.18 0.69v0l-1.59 0.24h-6.05l-2.4-0.39-0.61 2.64 2.86 0.34h6.35l2.49-0.29 1.56-1.54zM39.6-33.45h7.52c1.64 0 3.13 0.247 4.47 0.74 1.333 0.487 2.467 1.153 3.4 2 0.94 0.847 1.66 1.833 2.16 2.96 0.507 1.133 0.76 2.333 0.76 3.6v0 14.85c0 1.267-0.253 2.467-0.76 3.6-0.5 1.133-1.22 2.123-2.16 2.97-0.933 0.847-2.067 1.513-3.4 2-1.34 0.487-2.83 0.73-4.47 0.73v0h-7.52c-1.647 0-3.137-0.243-4.47-0.73-1.333-0.487-2.467-1.153-3.4-2-0.94-0.847-1.66-1.837-2.16-2.97-0.507-1.133-0.76-2.333-0.76-3.6v0-14.85c0-1.267 0.253-2.467 0.76-3.6 0.5-1.127 1.22-2.113 2.16-2.96 0.933-0.847 2.067-1.513 3.4-2 1.333-0.493 2.823-0.74 4.47-0.74zM52.15-14.99v-12.3l-0.34-2.06-1.54-1.56-2.52-0.34h-6.54l-2.49 0.34-1.56 1.56-0.29 2.06v12.3l0.29 2.1 1.61 1.54 2.44 0.29h6.54l2.52-0.29 1.54-1.54zM49.56-15.26l-0.34 1.37-1.61 0.24h-6.25l-1.59-0.24-0.37-1.47v-11.69l0.25-1.34 1.71-0.27h6.25l1.71 0.27 0.24 1.44zM78.27-20.29v-2.56h-8.15v-5.81h9.54v-2.59h-12.16v20.19h2.62v-9.23zM68.51-33.45h7.52c1.64 0 3.127 0.247 4.46 0.74 1.34 0.487 2.477 1.153 3.41 2 0.933 0.847 1.653 1.833 2.16 2.96 0.507 1.133 0.76 2.333 0.76 3.6v0 14.85c0 1.267-0.253 2.467-0.76 3.6-0.507 1.133-1.227 2.123-2.16 2.97-0.933 0.847-2.07 1.513-3.41 2-1.333 0.487-2.82 0.73-4.46 0.73v0h-7.52c-1.647 0-3.137-0.243-4.47-0.73-1.333-0.487-2.47-1.153-3.41-2-0.933-0.847-1.653-1.837-2.16-2.97-0.507-1.133-0.76-2.333-0.76-3.6v0-14.85c0-1.267 0.253-2.467 0.76-3.6 0.507-1.127 1.227-2.113 2.16-2.96 0.94-0.847 2.077-1.513 3.41-2 1.333-0.493 2.823-0.74 4.47-0.74zM109.57-28.66v-2.59h-14.11v2.59h5.76v17.6h2.61v-17.6zM97.41-33.45h7.52c1.647 0 3.137 0.247 4.47 0.74 1.333 0.487 2.47 1.153 3.41 2 0.933 0.847 1.653 1.833 2.16 2.96 0.5 1.133 0.75 2.333 0.75 3.6v0 14.85c0 1.267-0.25 2.467-0.75 3.6-0.507 1.133-1.227 2.123-2.16 2.97-0.94 0.847-2.077 1.513-3.41 2-1.333 0.487-2.823 0.73-4.47 0.73v0h-7.52c-1.64 0-3.13-0.243-4.47-0.73-1.333-0.487-2.467-1.153-3.4-2-0.94-0.847-1.66-1.837-2.16-2.97-0.507-1.133-0.76-2.333-0.76-3.6v0-14.85c0-1.267 0.253-2.467 0.76-3.6 0.5-1.127 1.22-2.113 2.16-2.96 0.933-0.847 2.067-1.513 3.4-2 1.34-0.493 2.83-0.74 4.47-0.74zM134.84-13.79l-2.91-16.65h-2.41l-2.88 16.65-0.57 0.19-0.63-0.15-1.66-17.5-2.81 0.49 1.95 17.92 1.52 1.49 1.59 0.39 1.61-0.39 1.49-1.49 1.61-10.77 1.58 10.77 1.52 1.49 1.58 0.39 1.62-0.39 1.49-1.49 1.95-17.92-2.81-0.49-1.63 17.5-0.66 0.15zM133.84 0h-7.52c-1.647 0-3.137-0.243-4.47-0.73-1.333-0.487-2.47-1.153-3.41-2-0.933-0.847-1.653-1.837-2.16-2.97-0.5-1.133-0.75-2.333-0.75-3.6v0-14.85c0-1.267 0.25-2.467 0.75-3.6 0.507-1.127 1.227-2.113 2.16-2.96 0.94-0.847 2.077-1.513 3.41-2 1.333-0.493 2.823-0.74 4.47-0.74v0h7.52c1.64 0 3.13 0.247 4.47 0.74 1.333 0.487 2.467 1.153 3.4 2 0.94 0.847 1.66 1.833 2.16 2.96 0.507 1.133 0.76 2.333 0.76 3.6v0 14.85c0 1.267-0.253 2.467-0.76 3.6-0.5 1.133-1.22 2.123-2.16 2.97-0.933 0.847-2.067 1.513-3.4 2-1.34 0.487-2.83 0.73-4.47 0.73zM163.33-11.35l2.42 0.27v-5.57-10.69-2.05l-1.66-1.57-2.44-0.29h-5.57l-2.86 0.34 0.61 2.66 2.3-0.46h5.44l1.47 0.32 0.34 1.29v5.69l-1.73-0.29h-5.57l-2.44 0.36-1.56 1.54-0.35 2v2.86l0.35 2.05 1.56 1.54 2.44 0.29h5.35zM163.38-15.21v1.32l-1.91 0.24h-5.24l-1.54-0.24-0.34-1.47v-2.1l0.19-1.39 1.69-0.24h5.29l1.86 0.19zM155.22-33.45h7.52c1.647 0 3.137 0.247 4.47 0.74 1.333 0.487 2.47 1.153 3.41 2 0.933 0.847 1.653 1.833 2.16 2.96 0.507 1.133 0.76 2.333 0.76 3.6v0 14.85c0 1.267-0.253 2.467-0.76 3.6-0.507 1.133-1.227 2.123-2.16 2.97-0.94 0.847-2.077 1.513-3.41 2-1.333 0.487-2.823 0.73-4.47 0.73v0h-7.52c-1.64 0-3.127-0.243-4.46-0.73-1.34-0.487-2.477-1.153-3.41-2-0.933-0.847-1.653-1.837-2.16-2.97-0.507-1.133-0.76-2.333-0.76-3.6v0-14.85c0-1.267 0.253-2.467 0.76-3.6 0.507-1.127 1.227-2.113 2.16-2.96 0.933-0.847 2.07-1.513 3.41-2 1.333-0.493 2.82-0.74 4.46-0.74zM184.13-33.45h7.52c1.647 0 3.137 0.247 4.47 0.74 1.333 0.487 2.467 1.153 3.4 2 0.94 0.847 1.66 1.833 2.16 2.96 0.507 1.133 0.76 2.333 0.76 3.6v0 14.85c0 1.267-0.253 2.467-0.76 3.6-0.5 1.133-1.22 2.123-2.16 2.97-0.933 0.847-2.067 1.513-3.4 2-1.333 0.487-2.823 0.73-4.47 0.73v0h-7.52c-1.64 0-3.13-0.243-4.47-0.73-1.333-0.487-2.467-1.153-3.4-2-0.94-0.847-1.66-1.837-2.16-2.97-0.507-1.133-0.76-2.333-0.76-3.6v0-14.85c0-1.267 0.253-2.467 0.76-3.6 0.5-1.127 1.22-2.113 2.16-2.96 0.933-0.847 2.067-1.513 3.4-2 1.34-0.493 2.83-0.74 4.47-0.74zM192.53-18.41l0.37 1.32v6.03h2.58v-6.3l-0.85-2.24-2.78-1.01 2.68-1.29 0.76-2.2v-2.71l-0.29-2.05-1.62-2.05-2.44-0.34h-9.1v20.19h2.61v-8.13h6.35zM184.45-28.66h6.35l1.73 0.75 0.17 1.42v2.59l-0.37 1.34-1.53 0.76h-6.35zM213.04-33.45h7.52c1.64 0 3.127 0.247 4.46 0.74 1.34 0.487 2.477 1.153 3.41 2 0.933 0.847 1.653 1.833 2.16 2.96 0.507 1.133 0.76 2.333 0.76 3.6v0 14.85c0 1.267-0.253 2.467-0.76 3.6-0.507 1.133-1.227 2.123-2.16 2.97-0.933 0.847-2.07 1.513-3.41 2-1.333 0.487-2.82 0.73-4.46 0.73v0h-7.52c-1.647 0-3.137-0.243-4.47-0.73-1.333-0.487-2.47-1.153-3.41-2-0.933-0.847-1.653-1.837-2.16-2.97-0.5-1.133-0.75-2.333-0.75-3.6v0-14.85c0-1.267 0.25-2.467 0.75-3.6 0.507-1.127 1.227-2.113 2.16-2.96 0.94-0.847 2.077-1.513 3.41-2 1.333-0.493 2.823-0.74 4.47-0.74zM223.75-21.19v-6.15l-0.36-2.05-1.54-1.57-2.47-0.29h-5.29l-2.44 0.29-1.54 1.57-0.37 2.05v11.59l0.37 2.05 1.54 1.54 2.44 0.32h6.15l2.86-0.37-0.61-2.63-2.3 0.39h-5.93l-1.56-0.25-0.35-1.46v-5.03zM221.14-23.75h-8.79v-3.3l0.2-1.39 1.71-0.27h4.98l1.66 0.27 0.24 1.44z" fill="#6402fc" fill-rule="nonzero" stroke="none" stroke-width="1" stroke-linecap="butt" stroke-linejoin="miter" stroke-miterlimit="10" stroke-dasharray="" stroke-dashoffset="0" font-family="none" font-weight="none" font-size="none" text-anchor="none" style="mix-blend-mode: normal" data-fill-palette-color="primary" opacity="1"></path><path transform="translate(0,72.89)" d="M10.69-33.45h7.52c1.647 0 3.137 0.247 4.47 0.74 1.333 0.487 2.47 1.153 3.41 2 0.933 0.847 1.653 1.833 2.16 2.96 0.5 1.133 0.75 2.333 0.75 3.6v0 14.85c0 1.267-0.25 2.467-0.75 3.6-0.507 1.133-1.227 2.123-2.16 2.97-0.94 0.847-2.077 1.513-3.41 2-1.333 0.487-2.823 0.73-4.47 0.73v0h-7.52c-1.64 0-3.127-0.243-4.46-0.73-1.34-0.487-2.477-1.153-3.41-2-0.933-0.847-1.653-1.837-2.16-2.97-0.507-1.133-0.76-2.333-0.76-3.6v0-14.85c0-1.267 0.253-2.467 0.76-3.6 0.507-1.127 1.227-2.113 2.16-2.96 0.933-0.847 2.07-1.513 3.41-2 1.333-0.493 2.82-0.74 4.46-0.74zM22.8-14.99v-3.71l-0.34-2.1-1.56-1.54-2.54-0.27h-5.47l-1.49-0.29c-0.08-0.28-0.137-0.53-0.17-0.75-0.033-0.213-0.09-0.443-0.17-0.69v0-2.56l0.34-1.44 1.61-0.32h6.2l2.3 0.46 0.58-2.66-2.83-0.39h-6.42l-2.44 0.34-1.59 1.56-0.31 2.06v3.34l0.31 2.05 1.59 1.54 2.44 0.32h5.52l1.49 0.24c0.047 0.247 0.103 0.473 0.17 0.68 0.067 0.213 0.123 0.433 0.17 0.66v0 3.2c-0.033 0.213-0.087 0.44-0.16 0.68-0.073 0.247-0.133 0.477-0.18 0.69v0l-1.59 0.24h-6.05l-2.4-0.39-0.61 2.64 2.86 0.34h6.35l2.49-0.29 1.56-1.54zM39.6-33.45h7.52c1.64 0 3.13 0.247 4.47 0.74 1.333 0.487 2.467 1.153 3.4 2 0.94 0.847 1.66 1.833 2.16 2.96 0.507 1.133 0.76 2.333 0.76 3.6v0 14.85c0 1.267-0.253 2.467-0.76 3.6-0.5 1.133-1.22 2.123-2.16 2.97-0.933 0.847-2.067 1.513-3.4 2-1.34 0.487-2.83 0.73-4.47 0.73v0h-7.52c-1.647 0-3.137-0.243-4.47-0.73-1.333-0.487-2.467-1.153-3.4-2-0.94-0.847-1.66-1.837-2.16-2.97-0.507-1.133-0.76-2.333-0.76-3.6v0-14.85c0-1.267 0.253-2.467 0.76-3.6 0.5-1.127 1.22-2.113 2.16-2.96 0.933-0.847 2.067-1.513 3.4-2 1.333-0.493 2.823-0.74 4.47-0.74zM52.15-14.99v-12.3l-0.34-2.06-1.54-1.56-2.52-0.34h-6.54l-2.49 0.34-1.56 1.56-0.29 2.06v12.3l0.29 2.1 1.61 1.54 2.44 0.29h6.54l2.52-0.29 1.54-1.54zM49.56-15.26l-0.34 1.37-1.61 0.24h-6.25l-1.59-0.24-0.37-1.47v-11.69l0.25-1.34 1.71-0.27h6.25l1.71 0.27 0.24 1.44zM78.86-11.06v-2.59h-7.5v-17.6h-2.59v20.19zM68.51-33.45h7.52c1.64 0 3.127 0.247 4.46 0.74 1.34 0.487 2.477 1.153 3.41 2 0.933 0.847 1.653 1.833 2.16 2.96 0.507 1.133 0.76 2.333 0.76 3.6v0 14.85c0 1.267-0.253 2.467-0.76 3.6-0.507 1.133-1.227 2.123-2.16 2.97-0.933 0.847-2.07 1.513-3.41 2-1.333 0.487-2.82 0.73-4.46 0.73v0h-7.52c-1.647 0-3.137-0.243-4.47-0.73-1.333-0.487-2.47-1.153-3.41-2-0.933-0.847-1.653-1.837-2.16-2.97-0.507-1.133-0.76-2.333-0.76-3.6v0-14.85c0-1.267 0.253-2.467 0.76-3.6 0.507-1.127 1.227-2.113 2.16-2.96 0.94-0.847 2.077-1.513 3.41-2 1.333-0.493 2.823-0.74 4.47-0.74zM97.41-33.45h7.52c1.647 0 3.137 0.247 4.47 0.74 1.333 0.487 2.47 1.153 3.41 2 0.933 0.847 1.653 1.833 2.16 2.96 0.5 1.133 0.75 2.333 0.75 3.6v0 14.85c0 1.267-0.25 2.467-0.75 3.6-0.507 1.133-1.227 2.123-2.16 2.97-0.94 0.847-2.077 1.513-3.41 2-1.333 0.487-2.823 0.73-4.47 0.73v0h-7.52c-1.64 0-3.13-0.243-4.47-0.73-1.333-0.487-2.467-1.153-3.4-2-0.94-0.847-1.66-1.837-2.16-2.97-0.507-1.133-0.76-2.333-0.76-3.6v0-14.85c0-1.267 0.253-2.467 0.76-3.6 0.5-1.127 1.22-2.113 2.16-2.96 0.933-0.847 2.067-1.513 3.4-2 1.34-0.493 2.83-0.74 4.47-0.74zM109.81-14.99v-16.26h-2.58v15.99c-0.033 0.213-0.087 0.44-0.16 0.68-0.073 0.247-0.143 0.477-0.21 0.69v0l-1.59 0.24h-6.25l-1.61-0.24-0.34-1.47v-15.89h-2.54v16.26l0.29 2.1 1.59 1.54 2.47 0.29h6.54l2.49-0.29 1.56-1.54zM138.48-28.66v-2.59h-14.11v2.59h5.76v17.6h2.61v-17.6zM126.32-33.45h7.52c1.64 0 3.13 0.247 4.47 0.74 1.333 0.487 2.467 1.153 3.4 2 0.94 0.847 1.66 1.833 2.16 2.96 0.507 1.133 0.76 2.333 0.76 3.6v0 14.85c0 1.267-0.253 2.467-0.76 3.6-0.5 1.133-1.22 2.123-2.16 2.97-0.933 0.847-2.067 1.513-3.4 2-1.34 0.487-2.83 0.73-4.47 0.73v0h-7.52c-1.647 0-3.137-0.243-4.47-0.73-1.333-0.487-2.47-1.153-3.41-2-0.933-0.847-1.653-1.837-2.16-2.97-0.5-1.133-0.75-2.333-0.75-3.6v0-14.85c0-1.267 0.25-2.467 0.75-3.6 0.507-1.127 1.227-2.113 2.16-2.96 0.94-0.847 2.077-1.513 3.41-2 1.333-0.493 2.823-0.74 4.47-0.74zM159.03-13.65h-5.76v2.59h14.11v-2.59h-5.73v-15.01h5.73v-2.59h-14.11v2.59h5.76zM155.22-33.45h7.52c1.647 0 3.137 0.247 4.47 0.74 1.333 0.487 2.47 1.153 3.41 2 0.933 0.847 1.653 1.833 2.16 2.96 0.507 1.133 0.76 2.333 0.76 3.6v0 14.85c0 1.267-0.253 2.467-0.76 3.6-0.507 1.133-1.227 2.123-2.16 2.97-0.94 0.847-2.077 1.513-3.41 2-1.333 0.487-2.823 0.73-4.47 0.73v0h-7.52c-1.64 0-3.127-0.243-4.46-0.73-1.34-0.487-2.477-1.153-3.41-2-0.933-0.847-1.653-1.837-2.16-2.97-0.507-1.133-0.76-2.333-0.76-3.6v0-14.85c0-1.267 0.253-2.467 0.76-3.6 0.507-1.127 1.227-2.113 2.16-2.96 0.933-0.847 2.07-1.513 3.41-2 1.333-0.493 2.82-0.74 4.46-0.74zM184.13-33.45h7.52c1.647 0 3.137 0.247 4.47 0.74 1.333 0.487 2.467 1.153 3.4 2 0.94 0.847 1.66 1.833 2.16 2.96 0.507 1.133 0.76 2.333 0.76 3.6v0 14.85c0 1.267-0.253 2.467-0.76 3.6-0.5 1.133-1.22 2.123-2.16 2.97-0.933 0.847-2.067 1.513-3.4 2-1.333 0.487-2.823 0.73-4.47 0.73v0h-7.52c-1.64 0-3.13-0.243-4.47-0.73-1.333-0.487-2.467-1.153-3.4-2-0.94-0.847-1.66-1.837-2.16-2.97-0.507-1.133-0.76-2.333-0.76-3.6v0-14.85c0-1.267 0.253-2.467 0.76-3.6 0.5-1.127 1.22-2.113 2.16-2.96 0.933-0.847 2.067-1.513 3.4-2 1.34-0.493 2.83-0.74 4.47-0.74zM196.68-14.99v-12.3l-0.34-2.06-1.54-1.56-2.51-0.34h-6.55l-2.49 0.34-1.56 1.56-0.29 2.06v12.3l0.29 2.1 1.61 1.54 2.44 0.29h6.55l2.51-0.29 1.54-1.54zM194.09-15.26l-0.34 1.37-1.61 0.24h-6.25l-1.59-0.24-0.36-1.47v-11.69l0.24-1.34 1.71-0.27h6.25l1.71 0.27 0.24 1.44zM225.1-11.06v-16.28l-0.34-2.05-1.57-1.57-2.49-0.29h-6.1l-4.39 0.61v19.58h2.58v-17.33l1.91-0.32h5.86l1.68 0.27 0.25 1.44v15.94zM213.04-33.45h7.52c1.64 0 3.127 0.247 4.46 0.74 1.34 0.487 2.477 1.153 3.41 2 0.933 0.847 1.653 1.833 2.16 2.96 0.507 1.133 0.76 2.333 0.76 3.6v0 14.85c0 1.267-0.253 2.467-0.76 3.6-0.507 1.133-1.227 2.123-2.16 2.97-0.933 0.847-2.07 1.513-3.41 2-1.333 0.487-2.82 0.73-4.46 0.73v0h-7.52c-1.647 0-3.137-0.243-4.47-0.73-1.333-0.487-2.47-1.153-3.41-2-0.933-0.847-1.653-1.837-2.16-2.97-0.5-1.133-0.75-2.333-0.75-3.6v0-14.85c0-1.267 0.25-2.467 0.75-3.6 0.507-1.127 1.227-2.113 2.16-2.96 0.94-0.847 2.077-1.513 3.41-2 1.333-0.493 2.823-0.74 4.47-0.74zM241.94-33.45h7.52c1.647 0 3.137 0.247 4.47 0.74 1.333 0.487 2.47 1.153 3.41 2 0.933 0.847 1.653 1.833 2.16 2.96 0.5 1.133 0.75 2.333 0.75 3.6v0 14.85c0 1.267-0.25 2.467-0.75 3.6-0.507 1.133-1.227 2.123-2.16 2.97-0.94 0.847-2.077 1.513-3.41 2-1.333 0.487-2.823 0.73-4.47 0.73v0h-7.52c-1.64 0-3.127-0.243-4.46-0.73-1.34-0.487-2.477-1.153-3.41-2-0.933-0.847-1.653-1.837-2.16-2.97-0.507-1.133-0.76-2.333-0.76-3.6v0-14.85c0-1.267 0.253-2.467 0.76-3.6 0.507-1.127 1.227-2.113 2.16-2.96 0.933-0.847 2.07-1.513 3.41-2 1.333-0.493 2.82-0.74 4.46-0.74zM254.05-14.99v-3.71l-0.34-2.1-1.56-1.54-2.54-0.27h-5.47l-1.49-0.29c-0.08-0.28-0.137-0.53-0.17-0.75-0.033-0.213-0.09-0.443-0.17-0.69v0-2.56l0.34-1.44 1.61-0.32h6.2l2.3 0.46 0.58-2.66-2.83-0.39h-6.42l-2.44 0.34-1.59 1.56-0.31 2.06v3.34l0.31 2.05 1.59 1.54 2.44 0.32h5.52l1.49 0.24c0.047 0.247 0.103 0.473 0.17 0.68 0.067 0.213 0.123 0.433 0.17 0.66v0 3.2c-0.033 0.213-0.087 0.44-0.16 0.68-0.073 0.247-0.133 0.477-0.18 0.69v0l-1.59 0.24h-6.05l-2.4-0.39-0.61 2.64 2.86 0.34h6.35l2.49-0.29 1.56-1.54z" fill="#6402fc" fill-rule="nonzero" stroke="none" stroke-width="1" stroke-linecap="butt" stroke-linejoin="miter" stroke-miterlimit="10" stroke-dasharray="" stroke-dashoffset="0" font-family="none" font-weight="none" font-size="none" text-anchor="none" style="mix-blend-mode: normal" data-fill-palette-color="primary" opacity="1"></path></g></svg></g></svg></g></svg></g></svg></g><g><svg viewBox="0 0 463.6725571723866 332.2189971492873" height="332.2189971492873" width="463.6725571723866"><g><svg xmlns="http://www.w3.org/2000/svg" xmlns:xlink="http://www.w3.org/1999/xlink" version="1.1" x="0" y="0" viewBox="1.5 15.2 97 69.5" enable-background="new 0 0 100 100" xml:space="preserve" height="332.2189971492873" width="463.6725571723866" class="icon-icon-0" data-fill-palette-color="accent" id="icon-0"><path d="M7.2 84.7h85.5c3.2 0 5.8-2.6 5.8-5.8v-2.5c0-0.5-0.2-1-0.5-1.4l-4.3-5.3c-0.7-0.9-1.1-1.9-1.1-3v-5-3.2-9.2l0 0V23.7c0-4.7-3.8-8.5-8.5-8.5H52.4 15.9c-4.7 0-8.5 3.8-8.5 8.5v34.8 1.9 6.2c0 1.1-0.4 2.2-1.1 3L2 75.1c-0.3 0.4-0.5 0.9-0.5 1.4V79C1.5 82.2 4.1 84.7 7.2 84.7zM59.2 76.4c0 1.6-1.3 2.9-2.9 2.9H43.8c-1.6 0-2.9-1.3-2.9-2.9v-0.6h18.4V76.4zM15.9 60.8v-2.2V23.7c0 0 0 0 0 0h40.3 27.9c0 0 0 0 0 0v34.9 2.2 0.6h0v0.4 5.5H15.9V60.8zM54.9 32.9l3.9 2.2-13.7 24-3.9-2.2L54.9 32.9zM38.5 38l-8 8 8 8-3.2 3.2-8-8L24.2 46l3.2-3.2 8-8L38.5 38zM72.6 42.8l3.2 3.2-3.2 3.2-8 8L61.5 54l8-8-8-8 3.2-3.2L72.6 42.8z" fill="#7006ff" data-fill-palette-color="accent"></path></svg></g></svg></g></svg></g><defs></defs></svg><rect width="395.52" height="148.0111411072534" fill="none" stroke="none" visibility="hidden"></rect></g></svg></g></svg>